<svg xmlns="http://www.w3.org/2000/svg" viewBox="0 0 742.51 313.52"><defs><style>.cls-1{fill:#f76430;}</style></defs><g id="レイヤー_2" data-name="レイヤー 2"><g id="レイヤー_1-2" data-name="レイヤー 1"><path class="cls-1" d="M73.52,16.06a2.2,2.2,0,0,1,2.31,2.2,2.07,2.07,0,0,1-.7,1.64,2.2,2.2,0,0,1-1.66.56l-1.34-.1H72c-.17,0-.32.12-.42.37L64.12,43.24a2.69,2.69,0,0,1-1,1.4,2.85,2.85,0,0,1-1.66.53,2.75,2.75,0,0,1-1.61-.53,2.65,2.65,0,0,1-1-1.4L53.11,24.82c0-.22-.14-.33-.32-.33s-.25.11-.32.33L46.72,43.19a2.82,2.82,0,0,1-1,1.42,2.75,2.75,0,0,1-1.67.56,2.72,2.72,0,0,1-1.66-.56,2.82,2.82,0,0,1-1-1.42L34,20.73c-.11-.32-.31-.44-.59-.37l-1.18.1a2.23,2.23,0,0,1-1.67-.56,2.1,2.1,0,0,1-.7-1.64,2.13,2.13,0,0,1,.7-1.61,2.09,2.09,0,0,1,1.61-.59l2.45.19c.7.05,1.37.08,2,.08s1.32,0,2-.08l2.44-.19a2.2,2.2,0,0,1,2.31,2.2,2.16,2.16,0,0,1-.62,1.59,2.07,2.07,0,0,1-1.53.61,10.35,10.35,0,0,1-1.1-.05L39,20.3h-.1c-.33,0-.43.18-.33.54L43.82,37c.07.21.18.32.32.32s.25-.12.32-.38l5.37-18.1A3.33,3.33,0,0,1,51,17.27a3,3,0,0,1,3.66,0,3.25,3.25,0,0,1,1.12,1.58L61.11,37c.08.22.18.33.33.33s.28-.11.32-.33L67,20.84a.11.11,0,0,1,0-.08.15.15,0,0,0,0-.08.33.33,0,0,0-.37-.38,7.85,7.85,0,0,0-1.08.08,6.83,6.83,0,0,1-1.13.08A2.21,2.21,0,0,1,63,16.65a2.12,2.12,0,0,1,1.62-.59l2.44.19c.7.05,1.37.08,2,.08s1.33,0,2-.08Z"/><path class="cls-1" d="M103.87,32.71H85.45c-.36,0-.51.18-.43.54a9.85,9.85,0,0,0,3.43,5.34,9.18,9.18,0,0,0,5.91,2.07,9.05,9.05,0,0,0,6.88-3.17,2.47,2.47,0,0,1,1.93-.91,2.11,2.11,0,0,1,1.29.43,2.16,2.16,0,0,1,1,1.88,2.06,2.06,0,0,1-.48,1.34,14,14,0,0,1-4.78,3.6,13.86,13.86,0,0,1-5.86,1.29A13.46,13.46,0,0,1,88.86,44a14.41,14.41,0,0,1-4.52-3.14,14.91,14.91,0,0,1-3.06-4.65,14.35,14.35,0,0,1-1.1-5.58A15.2,15.2,0,0,1,82,23.23,13.86,13.86,0,0,1,86.9,18a12.83,12.83,0,0,1,6.93-1.93A12.63,12.63,0,0,1,103,19.55a15,15,0,0,1,4.24,9.56,3.07,3.07,0,0,1-.83,2.53A3.33,3.33,0,0,1,103.87,32.71Zm-10-12.41a8.64,8.64,0,0,0-5.75,1.94A9.36,9.36,0,0,0,85,27.66v.11a.38.38,0,0,0,.43.43h16.49c.35,0,.5-.2.43-.59Q100.92,20.31,93.83,20.3Z"/><path class="cls-1" d="M132.71,16.11a12.81,12.81,0,0,1,5.91,1.29,12.07,12.07,0,0,1,4.16,3.44,15.19,15.19,0,0,1,2.45,4.7,17,17,0,0,1,.8,5.08,15.33,15.33,0,0,1-.91,5.15,14.79,14.79,0,0,1-2.69,4.68,13.63,13.63,0,0,1-4.35,3.38,13,13,0,0,1-5.9,1.29,10.28,10.28,0,0,1-3.79-.7A13.13,13.13,0,0,1,125,42.49c-.39-.33-.59-.38-.59-.16a2.39,2.39,0,0,1-2.36,2.36,2.17,2.17,0,0,1-1.64-.7,2.29,2.29,0,0,1-.67-1.66V8.65c0-.29-.13-.43-.38-.43a6.35,6.35,0,0,0-1.07.08,7.85,7.85,0,0,1-1.08.08,2.11,2.11,0,0,1-1.5-.62,2,2,0,0,1-.65-1.53,2.17,2.17,0,0,1,.7-1.66A2,2,0,0,1,117.46,4c.54,0,1.1.08,1.69.13s1.17.1,1.75.14a3.61,3.61,0,0,1,2.49,1.07,3.33,3.33,0,0,1,1,2.47V19.18a.46.46,0,0,0,.16.42c.11.08.23,0,.38-.1a13.66,13.66,0,0,1,3.49-2.45A9.65,9.65,0,0,1,132.71,16.11Zm-.48,24.44a8.21,8.21,0,0,0,4.56-1.31A9.29,9.29,0,0,0,140,35.67a11,11,0,0,0,1.18-5.11A11.13,11.13,0,0,0,140,25.41a8.74,8.74,0,0,0-3.14-3.52,8.42,8.42,0,0,0-4.62-1.26,9.56,9.56,0,0,0-4.16,1,10.31,10.31,0,0,0-3.46,2.69.88.88,0,0,0-.22.59V36.36a1.28,1.28,0,0,0,.16.59A8.78,8.78,0,0,0,132.23,40.55Z"/><path class="cls-1" d="M196.85,16.33a2.19,2.19,0,0,1-.65,1.58,2.35,2.35,0,0,1-1.61.73l-3.52.11c-1.34,0-2.77.05-4.27.05a.42.42,0,0,0-.48.48,71.91,71.91,0,0,1-.73,7.9,29.24,29.24,0,0,1-1.93,7,20.51,20.51,0,0,1-3.95,6.07,24.61,24.61,0,0,1-6.77,5,2.36,2.36,0,0,1-1.07.27,2.45,2.45,0,0,1-1.24-.35,2,2,0,0,1-.86-1,2.38,2.38,0,0,1-.26-1.08A2.34,2.34,0,0,1,170.85,41a19.4,19.4,0,0,0,6.71-5.56,18.36,18.36,0,0,0,3.09-7.17,51.67,51.67,0,0,0,1-9,.42.42,0,0,0-.48-.48H170.58a.42.42,0,0,0-.48.48c0,2.29.05,4.32.16,6.07a25.83,25.83,0,0,0,.75,4.89c0,.11.06.22.08.32a1.82,1.82,0,0,1,0,.32,2.21,2.21,0,0,1-.67,1.59,2.36,2.36,0,0,1-1.75.67,2.44,2.44,0,0,1-1.37-.4,2.29,2.29,0,0,1-.89-1.1,23.52,23.52,0,0,1-.91-5.43q-.21-3.23-.27-6.93a.42.42,0,0,0-.48-.48c-1.43,0-2.78.06-4,.08s-2.44.06-3.54.13a2.2,2.2,0,0,1-1.75-.64,2.36,2.36,0,0,1-.08-3.33,2.25,2.25,0,0,1,1.61-.75c1.15,0,2.37-.06,3.68-.08s2.68,0,4.11,0a.42.42,0,0,0,.48-.48V11.55c0-1,0-2,0-3s-.05-1.89-.05-2.82a2.19,2.19,0,0,1,.69-1.67,2.38,2.38,0,0,1,1.67-.64,2.25,2.25,0,0,1,1.66.7,2.47,2.47,0,0,1,.76,1.66c.1,2.94.16,5.55.16,7.84a.43.43,0,0,0,.48.49h10.63a.43.43,0,0,0,.49-.49V9.29c0-1.5,0-3.06.05-4.67a2.48,2.48,0,0,1,.75-1.69,2.32,2.32,0,0,1,1.67-.67,2.27,2.27,0,0,1,1.66.69,2.11,2.11,0,0,1,.65,1.67c0,1.54-.06,3.06-.08,4.56s0,3,0,4.41a.42.42,0,0,0,.48.48L191,14c1.27,0,2.41,0,3.42-.08a2.25,2.25,0,0,1,1.74.65A2.35,2.35,0,0,1,196.85,16.33Z"/><path class="cls-1" d="M234.93,3.33a2.4,2.4,0,0,1,1.13.94,2.58,2.58,0,0,1,.37,1.37,2.19,2.19,0,0,1-.21,1A44.28,44.28,0,0,1,233.13,12a61.59,61.59,0,0,1-4.27,5.64.57.57,0,0,0-.16.65,19.59,19.59,0,0,1,.86,4.1,49.3,49.3,0,0,1,.27,5.46c0,2-.08,4.31-.22,6.82S229.25,40,229,43a2.42,2.42,0,0,1-.81,1.67,2.54,2.54,0,0,1-1.77.7,2.21,2.21,0,0,1-1.72-.78,2.43,2.43,0,0,1-.65-1.8q.43-4.89.73-8.86c.2-2.65.29-5,.29-7.09,0-.83,0-1.6,0-2.31s-.09-1.38-.16-2-.29-.54-.64-.22a55.3,55.3,0,0,1-5.94,4.73,64,64,0,0,1-7.06,4.24,2.34,2.34,0,0,1-1.08.22,2.55,2.55,0,0,1-1.29-.35,2,2,0,0,1-.86-1.05,2.65,2.65,0,0,1-.21-1.07,2.45,2.45,0,0,1,1.4-2.31,61.41,61.41,0,0,0,13.72-9.94,42,42,0,0,0,8.84-12.24,2.31,2.31,0,0,1,.94-1.08A2.48,2.48,0,0,1,234,3.12,2.19,2.19,0,0,1,234.93,3.33Z"/><path class="cls-1" d="M283.54,28.36a2.44,2.44,0,0,1,.7,1.77,2.61,2.61,0,0,1-.7,1.83,1.87,1.87,0,0,1-1.56.7,2.28,2.28,0,0,1-1.66-.7,30.67,30.67,0,0,0-6.72-5.59,22.61,22.61,0,0,0-7.52-2.79H266a.38.38,0,0,0-.43.43V42.7a2.45,2.45,0,0,1-4.16,1.72,2.31,2.31,0,0,1-.72-1.72V6.28a2.37,2.37,0,0,1,.72-1.74,2.35,2.35,0,0,1,1.69-.73,2.4,2.4,0,0,1,1.75.73,2.37,2.37,0,0,1,.72,1.74v12c0,.25.17.41.49.48a24.55,24.55,0,0,1,6.63,1.91,33.26,33.26,0,0,1,6,3.41A34.31,34.31,0,0,1,283.54,28.36Z"/><path class="cls-1" d="M305,36.69a1.9,1.9,0,0,1-.64-1.45,1.77,1.77,0,0,1,.64-1.45L313.78,25a.4.4,0,0,0,0-.64L305,15.68a2,2,0,0,1-.64-1.45,1.8,1.8,0,0,1,.64-1.45,2,2,0,0,1,1.45-.64,1.77,1.77,0,0,1,1.45.64l8.76,8.7a.39.39,0,0,0,.64,0l8.76-8.7a1.88,1.88,0,0,1,1.45-.64,1.79,1.79,0,0,1,1.45.64,1.8,1.8,0,0,1,.64,1.45,2,2,0,0,1-.64,1.45l-8.76,8.71a.4.4,0,0,0,0,.64L329,33.79a1.77,1.77,0,0,1,.64,1.45,1.9,1.9,0,0,1-.64,1.45,1.79,1.79,0,0,1-1.45.64,1.88,1.88,0,0,1-1.45-.64L317.32,28a.4.4,0,0,0-.64,0l-8.76,8.71a1.77,1.77,0,0,1-1.45.64A2,2,0,0,1,305,36.69Z"/><path class="cls-1" d="M385.27,20.09a2.29,2.29,0,0,1,1.66.67,2.39,2.39,0,0,1,0,3.38,2.3,2.3,0,0,1-1.66.68q-2.58,0-6.18.1l-7.63.22c-.25,0-.41.14-.48.43a27.6,27.6,0,0,1-3.84,11.06,27.18,27.18,0,0,1-8.73,8.43,2.21,2.21,0,0,1-1.18.33,2.07,2.07,0,0,1-2-1.24,2.49,2.49,0,0,1-.32-1.18,2.36,2.36,0,0,1,1.29-2.15,20.42,20.42,0,0,0,7-6.87,23.91,23.91,0,0,0,2.92-8.11v-.11a.38.38,0,0,0-.43-.43c-3.15.11-6.19.22-9.13.35s-5.48.28-7.62.45a2.41,2.41,0,0,1-2-4,2.18,2.18,0,0,1,1.58-.76c2.26-.17,4.92-.33,8-.45s6.25-.24,9.51-.35a.43.43,0,0,0,.48-.49,32.3,32.3,0,0,0,0-3.27c-.07-1.08-.14-2.15-.22-3.22,0-.29-.21-.42-.53-.38q-2.64.48-5.43.78t-5.8.4a2.18,2.18,0,0,1-1.74-.67,2.36,2.36,0,0,1-.73-1.75,2.15,2.15,0,0,1,.7-1.63,2.47,2.47,0,0,1,1.61-.73,84.37,84.37,0,0,0,9.83-1,43.88,43.88,0,0,0,7.39-1.82,32.19,32.19,0,0,0,5.72-2.63,2.47,2.47,0,0,1,1.23-.38,2.14,2.14,0,0,1,2,1.24,3,3,0,0,1,.27,1.18,2.56,2.56,0,0,1-.32,1.23,2.3,2.3,0,0,1-.91.92,41.52,41.52,0,0,1-8.22,3.43c-.32.07-.45.25-.38.54.14,1.33.25,2.62.32,3.89s.09,2.5.06,3.68c0,.33.25.49.75.49,2.54-.07,5-.14,7.25-.19S383.62,20.09,385.27,20.09Z"/><path class="cls-1" d="M420.93,44.8a1.79,1.79,0,0,1-.48.05,2.35,2.35,0,0,1-1.64-.67,2.21,2.21,0,0,1-.72-1.69,2.53,2.53,0,0,1,2-2.47,29.52,29.52,0,0,0,11.57-5.08,24.45,24.45,0,0,0,7.5-9.1c.39-.86.7-1.59.94-2.18a4.18,4.18,0,0,0,.35-1.42,1,1,0,0,0-.81-1A10.65,10.65,0,0,0,437.1,21c-1.39,0-3.26.11-5.58.32s-4.88.43-7.66.65-5.56.32-8.35.32q-.54,0-1.08,0l-1.12,0a2.42,2.42,0,0,1-1.69-.76,2.35,2.35,0,0,1-.68-1.71,2.29,2.29,0,0,1,.78-1.78,2.26,2.26,0,0,1,1.8-.59c.72,0,1.43.07,2.12.08l2.07,0A109.71,109.71,0,0,0,429,17q5.18-.52,8.78-.53c2.87,0,4.84.47,5.94,1.42a4.64,4.64,0,0,1,1.63,3.68,10.65,10.65,0,0,1-.53,3.14,27.1,27.1,0,0,1-1.4,3.47,28.27,28.27,0,0,1-8.84,10.71A35.34,35.34,0,0,1,420.93,44.8Zm18.43-33.95H416.58a2.23,2.23,0,0,1-1.69-.7,2.29,2.29,0,0,1-.67-1.66,2.26,2.26,0,0,1,.7-1.7,2.34,2.34,0,0,1,1.66-.67h22.78a2.27,2.27,0,0,1,1.69.7,2.32,2.32,0,0,1,.67,1.67,2.23,2.23,0,0,1-.7,1.69A2.29,2.29,0,0,1,439.36,10.85Z"/><path class="cls-1" d="M480.66,27.12a27.47,27.47,0,0,0-8.27-1.87,2.36,2.36,0,0,1-1.58-.73,2.1,2.1,0,0,1-.67-1.53,2.54,2.54,0,0,1,.72-1.83,2.2,2.2,0,0,1,1.75-.7,29.54,29.54,0,0,1,5.15.73,26.87,26.87,0,0,1,4.78,1.53,2,2,0,0,1,1,.89,2.65,2.65,0,0,1,.35,1.31,2.16,2.16,0,0,1-.73,1.75,2.44,2.44,0,0,1-1.63.62A2.9,2.9,0,0,1,480.66,27.12Zm3.12-11.65a17,17,0,0,0-4-2,23.94,23.94,0,0,0-4.57-1.07,2.46,2.46,0,0,1-1.42-.81,2.16,2.16,0,0,1-.56-1.45,2.36,2.36,0,0,1,.8-1.8,2.3,2.3,0,0,1,1.83-.62,23.2,23.2,0,0,1,5.29,1.21A24.28,24.28,0,0,1,486,11.28a2.52,2.52,0,0,1,1.13,2.15,2.56,2.56,0,0,1-.32,1.23A1.87,1.87,0,0,1,485,15.79,2.49,2.49,0,0,1,483.78,15.47Zm-7.14,29a2.48,2.48,0,0,1-.6,0,2.58,2.58,0,0,1-1.82-.75,2.46,2.46,0,0,1-.81-1.88,2.35,2.35,0,0,1,.49-1.42,2.29,2.29,0,0,1,1.34-.89,43.75,43.75,0,0,0,7.25-2.74,57,57,0,0,0,7.73-4.43,55.4,55.4,0,0,0,7.36-5.93,39.89,39.89,0,0,0,6.07-7.36,2.3,2.3,0,0,1,2-1.13,2.2,2.2,0,0,1,1.34.48,2.65,2.65,0,0,1,1.13,2.21,2.71,2.71,0,0,1-.43,1.45,42.84,42.84,0,0,1-5.5,6.82,63.46,63.46,0,0,1-7.52,6.52,63.16,63.16,0,0,1-8.79,5.46A45.06,45.06,0,0,1,476.64,44.42Z"/><path class="cls-1" d="M544,17.08c0,.22.11.32.33.32h8.32A2.29,2.29,0,0,1,555,19.66a2.29,2.29,0,0,1-2.26,2.25h-8.32a.29.29,0,0,0-.33.33v2.68a.29.29,0,0,0,.33.33h5.31a3.46,3.46,0,0,1,2.5,1,3.37,3.37,0,0,1,1.05,2.52V38q0,5.58-6.55,5.42a2.11,2.11,0,0,1-1.59-.72,2.33,2.33,0,0,1-.67-1.64,2.26,2.26,0,0,1,2.42-2.31,2.81,2.81,0,0,1,.45,0,2.24,2.24,0,0,0,.35,0,1.08,1.08,0,0,0,.76-.18,1,1,0,0,0,.16-.62V30a.29.29,0,0,0-.33-.33h-3.86A.29.29,0,0,0,544,30V45a2.29,2.29,0,0,1-.67,1.66,2.16,2.16,0,0,1-1.63.7,2.24,2.24,0,0,1-1.7-.7,2.29,2.29,0,0,1-.67-1.66V30a.29.29,0,0,0-.32-.33h-4a.29.29,0,0,0-.32.33v11.7a2.27,2.27,0,0,1-.67,1.62,2.2,2.2,0,0,1-1.64.69,2.13,2.13,0,0,1-1.58-.69,2.27,2.27,0,0,1-.67-1.62V28.79a3.46,3.46,0,0,1,1-2.5,3.36,3.36,0,0,1,2.52-1h5.32a.29.29,0,0,0,.32-.33V22.24a.29.29,0,0,0-.32-.33H529.7a2.29,2.29,0,0,1-2.25-2.25,2.29,2.29,0,0,1,2.25-2.26h9.35a.28.28,0,0,0,.32-.32V11.92a.29.29,0,0,0-.32-.32h-5a.5.5,0,0,0-.43.22,19.47,19.47,0,0,1-2.68,3.33,1.79,1.79,0,0,1-1.45.64,2.08,2.08,0,0,1-1.61-.7,2.49,2.49,0,0,1,0-3.22,21.71,21.71,0,0,0,4.51-8.43,2.35,2.35,0,0,1,.83-1.24,2.26,2.26,0,0,1,1.42-.48,2.15,2.15,0,0,1,1.7.7A2.35,2.35,0,0,1,537,4a2.34,2.34,0,0,1-.05.59,9,9,0,0,1-.27,1c-.11.34-.23.69-.37,1s0,.38.21.38h2.58a.29.29,0,0,0,.32-.32v-4a2.1,2.1,0,0,1,.73-1.66,2.45,2.45,0,0,1,1.69-.65,2.13,2.13,0,0,1,1.61.7A2.3,2.3,0,0,1,544,2.79v4a.29.29,0,0,0,.33.32h6a2.13,2.13,0,0,1,1.58.67,2.17,2.17,0,0,1,.67,1.59,2.15,2.15,0,0,1-.67,1.58,2.13,2.13,0,0,1-1.58.67h-6a.29.29,0,0,0-.33.32ZM560.8,6.18V34.32a2.32,2.32,0,0,1-.67,1.67,2.21,2.21,0,0,1-1.64.7,2.27,2.27,0,0,1-1.69-.7,2.32,2.32,0,0,1-.67-1.67V6.18a2.32,2.32,0,0,1,.67-1.67,2.34,2.34,0,0,1,4,1.67Zm8.44-5.7a2.43,2.43,0,0,1,1.72.67,2.28,2.28,0,0,1,.69,1.7v38.4q0,5.91-7.25,5.91c-.36,0-.71,0-1.07,0s-.74,0-1.13-.08a2.44,2.44,0,0,1-1.58-.86,2.56,2.56,0,0,1-.68-1.77,2.11,2.11,0,0,1,.78-1.72,2.34,2.34,0,0,1,1.8-.54,20.42,20.42,0,0,0,2.26.17,3.31,3.31,0,0,0,1.58-.27.87.87,0,0,0,.46-.81V2.85a2.27,2.27,0,0,1,.7-1.67A2.35,2.35,0,0,1,569.24.48Z"/><path class="cls-1" d="M604.31,2.79a51.53,51.53,0,0,1-4.35,11,.93.93,0,0,0-.11.38V44.9a2.17,2.17,0,0,1-.7,1.64,2.27,2.27,0,0,1-3.22,0,2.17,2.17,0,0,1-.7-1.64V21.38c0-.15,0-.23-.13-.24s-.17,0-.24.13c-.54.61-1.1,1.21-1.67,1.8s-1.16,1.15-1.77,1.69a1.88,1.88,0,0,1-1.29.49,2.14,2.14,0,0,1-1.07-.3,1.91,1.91,0,0,1-.81-.83,3,3,0,0,1-.32-1.35,3.2,3.2,0,0,1,1-2.31,33.74,33.74,0,0,0,6.42-8.13,44.16,44.16,0,0,0,4.38-10.56A2.32,2.32,0,0,1,600.6.48,2.38,2.38,0,0,1,602.05,0a2.26,2.26,0,0,1,1.67.64,2.12,2.12,0,0,1,.64,1.56A2.34,2.34,0,0,1,604.31,2.79Zm9,6c-.1.25,0,.37.27.37h18.91a2.28,2.28,0,0,1,1.66.7,2.22,2.22,0,0,1,.7,1.61,2.39,2.39,0,0,1-2.36,2.37H619.73a.29.29,0,0,0-.33.32v6.28a.29.29,0,0,0,.33.33h10.36a2.2,2.2,0,0,1,1.64.69,2.28,2.28,0,0,1,0,3.23,2.21,2.21,0,0,1-1.64.7H619.73c-.22,0-.33.1-.33.32v6.34a.29.29,0,0,0,.33.32h10.36a2.22,2.22,0,0,1,1.64.67,2.16,2.16,0,0,1,.67,1.58A2.29,2.29,0,0,1,630.09,37H619.73a.29.29,0,0,0-.33.33V44.9a2.2,2.2,0,0,1-.69,1.64,2.27,2.27,0,0,1-1.62.67,2.29,2.29,0,0,1-1.66-.67,2.17,2.17,0,0,1-.7-1.64V14.18a.29.29,0,0,0-.32-.32h-3.22c-.22,0-.35.07-.38.21a43.8,43.8,0,0,1-3,4.76,32.54,32.54,0,0,1-3.54,4.11,1.94,1.94,0,0,1-1.4.59,2.07,2.07,0,0,1-1.77-1,2.65,2.65,0,0,1-.43-1.51,2.81,2.81,0,0,1,.86-2.09A37.36,37.36,0,0,0,607,11.23a40.29,40.29,0,0,0,3.7-9.35,2.38,2.38,0,0,1,.89-1.37A2.47,2.47,0,0,1,613.12,0a2.11,2.11,0,0,1,1.64.67,2.29,2.29,0,0,1,.62,1.59,2.32,2.32,0,0,1-.06.59c-.21.89-.49,1.85-.83,2.87S613.76,7.77,613.33,8.81Z"/><path class="cls-1" d="M14.66,126.12h34.4a5.75,5.75,0,0,1,5.69,5.69v57.6c0,3.68-1.15,6.26-3.45,7.72s-6,2.06-11.12,1.77a3.55,3.55,0,0,1-2.5-1.25,3.85,3.85,0,0,1-1-2.63,3.61,3.61,0,0,1,1.12-2.72,3.51,3.51,0,0,1,2.76-1c.8.06,1.51.09,2.11.09h1.59c1.5,0,2.38-.15,2.63-.43a2.37,2.37,0,0,0,.39-1.56V174.24a.46.46,0,0,0-.52-.52H15.26a.61.61,0,0,0-.6.43A96.65,96.65,0,0,1,11.86,186,73.06,73.06,0,0,1,7.5,197a4.16,4.16,0,0,1-3.88,2.42,3.57,3.57,0,0,1-2.63-1,3.23,3.23,0,0,1-1-2.37,3.57,3.57,0,0,1,.35-1.63,67.56,67.56,0,0,0,5.6-15,100,100,0,0,0,2.41-15q.62-7.33.61-13.8v-18.8a5.5,5.5,0,0,1,1.64-4A5.4,5.4,0,0,1,14.66,126.12Zm1.12,39.67c-.06.34.09.52.43.52H46.73a.46.46,0,0,0,.52-.52V154.15a.46.46,0,0,0-.52-.52H17a.46.46,0,0,0-.52.52q-.09,2.92-.26,5.82T15.78,165.79Zm30.95-19.58a.45.45,0,0,0,.52-.51V134.06a.46.46,0,0,0-.52-.52H17a.46.46,0,0,0-.52.52V145.7a.45.45,0,0,0,.52.51Z"/><path class="cls-1" d="M116.84,153a49.77,49.77,0,0,1-6,12.93A51.29,51.29,0,0,1,102,176.48a.7.7,0,0,0-.09,1.12,50.78,50.78,0,0,1,6,8.19,4.4,4.4,0,0,1,.52,1.9,3.58,3.58,0,0,1-1.25,2.76,4,4,0,0,1-2.72,1.12,3.33,3.33,0,0,1-2.93-1.81,51.52,51.52,0,0,0-7.89-10.3,33.39,33.39,0,0,0-8.93-6.34A3.63,3.63,0,0,1,83,171.74a3.44,3.44,0,0,1-.52-1.81,4.13,4.13,0,0,1,1.12-2.76,3.53,3.53,0,0,1,2.76-1.3,4.61,4.61,0,0,1,1.64.44,44.07,44.07,0,0,1,7.5,5,.86.86,0,0,0,1,0,39.88,39.88,0,0,0,11.64-16,.15.15,0,0,1,.05-.12.18.18,0,0,0,0-.13c0-.41-.23-.61-.69-.61h-18a1.25,1.25,0,0,0-1,.52,68.86,68.86,0,0,1-8.41,10.56,60,60,0,0,1-10.82,8.84,3.22,3.22,0,0,1-1.89.6A3.25,3.25,0,0,1,65,173.76a4,4,0,0,1-1.08-2.71,3.75,3.75,0,0,1,1.9-3.11,48.66,48.66,0,0,0,11.3-9.35,59.43,59.43,0,0,0,7.8-11.21,74.69,74.69,0,0,0,5-11.6,3.6,3.6,0,0,1,3.45-2.67,3.94,3.94,0,0,1,2.63,1,3.28,3.28,0,0,1,1.17,2.63v.56a1.42,1.42,0,0,1-.18.65c-.51,1.38-1.06,2.79-1.63,4.22s-1.21,2.85-1.9,4.23a.91.91,0,0,0-.09.43c0,.34.23.52.69.52h18.28a4.51,4.51,0,0,1,3.32,1.33,4.31,4.31,0,0,1,1.34,3.15c0,.17,0,.36,0,.56S116.89,152.8,116.84,153Z"/><path class="cls-1" d="M172.08,197.17a6.92,6.92,0,0,1-5.15-1.84,6.51,6.51,0,0,1-2.22-5.06,6.76,6.76,0,0,1,2.22-5.15,6.28,6.28,0,0,1,5.15-1.76c1.63.2,3.37.38,5.22.53s3.68.29,5.52.39a1.23,1.23,0,0,0,1.39-1.38V164.48a1.23,1.23,0,0,0-1.39-1.39H139.69a6,6,0,0,1-6.14-4.3,6.79,6.79,0,0,1-.62-3.07,7.9,7.9,0,0,1,1.38-4.6L179,85.42a9.27,9.27,0,0,1,8.13-4.3A9.51,9.51,0,0,1,194.34,84a9.73,9.73,0,0,1,2.76,6.91v58.34a1.22,1.22,0,0,0,1.38,1.38h15.35a6,6,0,0,1,4.45,1.84,5.89,5.89,0,0,1,1.85,4.3,6.12,6.12,0,0,1-1.85,4.37,5.89,5.89,0,0,1-4.45,1.92H198.48a1.22,1.22,0,0,0-1.38,1.39V182.9a1.22,1.22,0,0,0,1.38,1.38c1.84-.1,3.69-.23,5.53-.39s3.58-.33,5.22-.53a6.27,6.27,0,0,1,5.22,1.76,6.88,6.88,0,0,1,2.15,5.15,6.62,6.62,0,0,1-2.15,5.06,6.89,6.89,0,0,1-5.22,1.84c-3.28-.3-6.45-.56-9.52-.76s-6.09-.31-9.06-.31-6,.1-9.06.31S175.35,196.87,172.08,197.17Zm12.13-93.64a1.32,1.32,0,0,0-.54-1.23c-.36-.2-.75,0-1.15.62L151.2,149a2.61,2.61,0,0,0-.31.77c0,.61.41.92,1.23.92h30.7a1.23,1.23,0,0,0,1.39-1.38Z"/><path class="cls-1" d="M241.77,202.35a4,4,0,0,1-1.84.46,3.17,3.17,0,0,1-2.53-1.15,3.93,3.93,0,0,1-1-2.68,3.29,3.29,0,0,1,1.69-2.92,33.61,33.61,0,0,0,8.36-7.83c2-2.76,3-5.12,3-7.06q0-3.37-3.53-3.84a10.06,10.06,0,0,1-6.84-3.84,11,11,0,0,1-2.22-6.6,11.92,11.92,0,0,1,2.76-7.6q2.76-3.45,8-3.3,5.53,0,8.83,5.07a22,22,0,0,1,3.3,12.28,33.58,33.58,0,0,1-4.22,15.58Q251.28,197,241.77,202.35Z"/><path class="cls-1" d="M308.09,151.58a40.38,40.38,0,0,1-19.27-4.45,33.18,33.18,0,0,1-13.12-12.36,34.5,34.5,0,0,1-4.76-18.19,36.88,36.88,0,0,1,4.91-19.19,34.35,34.35,0,0,1,13.66-13,42,42,0,0,1,20.11-4.68,48,48,0,0,1,15.28,2.53,35.86,35.86,0,0,1,13.74,8.52q6.14,6,9.82,16.12t3.68,25.17q0,20-5.29,34.31t-15.28,22q-10,7.68-24.1,7.68-10,0-17-3.3a26.83,26.83,0,0,1-10.59-8.29,16.68,16.68,0,0,1-3.61-9.75,10.73,10.73,0,0,1,3-7.91,9.61,9.61,0,0,1,7-3,8.51,8.51,0,0,1,6.83,3,9.91,9.91,0,0,1,2.53,6.53,8.09,8.09,0,0,1-1.23,4.6c-.51.82-.51,1.49,0,2q3.38,3.53,12.75,3.53a25.71,25.71,0,0,0,16.65-5.91q7.29-5.91,11.51-16.35a67.42,67.42,0,0,0,4.53-23.95c0-.51-.2-.76-.61-.76a3.24,3.24,0,0,0-2.3,1.53,34.74,34.74,0,0,1-9.75,8.06,42.65,42.65,0,0,1-10.59,4.22A38.06,38.06,0,0,1,308.09,151.58Zm2.45-59.26q-12,0-19.34,6.37t-7.37,16.81q0,8,2.38,12.82a17.33,17.33,0,0,0,6.3,7.29,21.84,21.84,0,0,0,8.36,3.15,38.12,38.12,0,0,0,8.6.39,28.2,28.2,0,0,0,13.35-4.3,30.82,30.82,0,0,0,9.91-9.83,23.34,23.34,0,0,0,3.76-12.59,4.8,4.8,0,0,0-.31-2q-3.37-9.36-9.6-13.74T310.54,92.32Z"/><path class="cls-1" d="M437.65,132.54c-.51.21-.77.46-.77.77s.31.62.92.92a32.56,32.56,0,0,1,14.59,11.06A27.69,27.69,0,0,1,457.76,162a29.78,29.78,0,0,1-5.68,18,37.33,37.33,0,0,1-15.66,12.2q-10,4.38-23.18,4.38a57.34,57.34,0,0,1-23.1-4.38A37.21,37.21,0,0,1,374.4,180a29.85,29.85,0,0,1-5.68-18,27.76,27.76,0,0,1,5.07-16.2,35.25,35.25,0,0,1,14-11.59c1.12-.51,1.17-1.07.15-1.69a26.65,26.65,0,0,1-9.36-9.59A25,25,0,0,1,375,110.13a27.13,27.13,0,0,1,4.83-16,32.23,32.23,0,0,1,13.51-10.83,47.85,47.85,0,0,1,19.88-3.91A47.31,47.31,0,0,1,433,83.34a32.74,32.74,0,0,1,13.51,10.83,26.79,26.79,0,0,1,4.92,16,23.85,23.85,0,0,1-3.69,12.74A27.78,27.78,0,0,1,437.65,132.54Zm-24.41,52q14.13,0,22.49-6.14A19.34,19.34,0,0,0,444.1,162a17.5,17.5,0,0,0-4-11.36,26.86,26.86,0,0,0-10.9-7.75,41.65,41.65,0,0,0-16-2.84,39.67,39.67,0,0,0-15.66,3,29.3,29.3,0,0,0-11.2,7.91A16.66,16.66,0,0,0,382.23,162q0,10.74,8.14,16.65T413.24,184.58Zm-24.56-74.29q0,8,6.83,13t17.73,5a31.29,31.29,0,0,0,12.44-2.38,22.27,22.27,0,0,0,8.82-6.53,14.21,14.21,0,0,0,3.3-9A16.09,16.09,0,0,0,431,96.93q-6.83-5.22-17.73-5.22a29.67,29.67,0,0,0-12.36,2.53,23.56,23.56,0,0,0-8.9,6.68A14.65,14.65,0,0,0,388.68,110.29Z"/><path class="cls-1" d="M518.7,79.58q14.13,0,24.18,6.91t15.51,19.73Q563.84,119,563.84,137q0,18.57-5.38,31.93T543,189.34q-10.06,7.07-24.34,7.07t-24.33-7.07q-10-7.05-15.35-20.41T473.72,137q0-18,5.45-30.78t15.51-19.73Q504.73,79.59,518.7,79.58Zm0,103.93a25.84,25.84,0,0,0,16.66-5.6q7-5.61,10.75-16t3.76-24.57q0-13.65-3.84-23.71T535.21,98.08a27.49,27.49,0,0,0-32.86,0q-7,5.44-10.82,15.51t-3.84,23.71q0,21.34,8.29,33.78T518.7,183.51Z"/><path class="cls-1" d="M586.24,132.31h48.11a4.84,4.84,0,0,1,3.59,1.49,4.94,4.94,0,0,1,1.45,3.55V187.6q0,8.78-12.3,8.4a3.59,3.59,0,0,1-2.48-1.19,3.86,3.86,0,0,1-1-2.71,3.08,3.08,0,0,1,1-2.33A3,3,0,0,1,627,189a22.16,22.16,0,0,0,4.66-.19,1.16,1.16,0,0,0,1-1.18V168a.41.41,0,0,0-.46-.46H588.38a.41.41,0,0,0-.46.46v25a3.38,3.38,0,0,1-3.36,3.36,3.32,3.32,0,0,1-2.37-1,3.21,3.21,0,0,1-1-2.41V137.35a4.9,4.9,0,0,1,1.45-3.55A4.84,4.84,0,0,1,586.24,132.31Zm20.69,7.1a.4.4,0,0,0-.45-.46h-18.1a.41.41,0,0,0-.46.46v20.92a.4.4,0,0,0,.46.46h18.1a.4.4,0,0,0,.45-.46ZM614,139a.41.41,0,0,0-.46.46v20.92a.4.4,0,0,0,.46.46h18.17a.4.4,0,0,0,.46-.46V139.41a.41.41,0,0,0-.46-.46Z"/><path class="cls-1" d="M720.51,150.13a23.22,23.22,0,0,1-9.11-1.76,42.35,42.35,0,0,1-8-4.4q-3.76-2.64-7.48-5.21a47.19,47.19,0,0,0-7.6-4.34,20,20,0,0,0-8.3-1.76,21.21,21.21,0,0,0-7.6,1.57,35,35,0,0,0-8.86,5.34,5,5,0,0,1-3,1.14,4.74,4.74,0,0,1-3.46-1.45,4.45,4.45,0,0,1-1.44-3.21,3.82,3.82,0,0,1,1.63-3.14,39.77,39.77,0,0,1,11.31-6.53,31,31,0,0,1,10.19-1.89,29.74,29.74,0,0,1,10.12,1.7,50.26,50.26,0,0,1,9,4.27q4.27,2.58,8,5.15a61.28,61.28,0,0,0,7.16,4.28,14.41,14.41,0,0,0,6.41,1.69,31,31,0,0,0,6-.5,14.45,14.45,0,0,0,4.77-1.88,30.66,30.66,0,0,0,5-4,3.87,3.87,0,0,1,2.77-1.25,4,4,0,0,1,3.08,1.51,5,5,0,0,1,1.32,3.39,4.4,4.4,0,0,1-1.76,3.64,37.38,37.38,0,0,1-9.43,5.79A28.79,28.79,0,0,1,720.51,150.13Z"/><path class="cls-1" d="M667,195a16.44,16.44,0,0,1-4.51-4,17.37,17.37,0,0,1-2.7-5.19,18.73,18.73,0,0,1,0-11.41,17.32,17.32,0,0,1,2.7-5.18,16.44,16.44,0,0,1,4.51-4.05.59.59,0,0,1,.37-.13.76.76,0,0,1,.5.19.52.52,0,0,1,0,.82,17.83,17.83,0,0,0-4.63,6.46,19.24,19.24,0,0,0,0,15.18,18.16,18.16,0,0,0,4.63,6.48.54.54,0,0,1,.18.38.59.59,0,0,1-.2.42.66.66,0,0,1-.49.2A.63.63,0,0,1,667,195Z"/><path class="cls-1" d="M680.12,185.75a1.19,1.19,0,0,1-.44.09,1.1,1.1,0,0,1-.69-.23,1.07,1.07,0,0,1-.41-.65,2.24,2.24,0,0,0-.1-.39l-.12-.39c0-.08-.06-.11-.13-.09a.14.14,0,0,0-.09.15v8.41a1.27,1.27,0,0,1-.39.93,1.38,1.38,0,0,1-1.92,0,1.27,1.27,0,0,1-.39-.93v-7.78c0-.1,0-.16-.08-.17s-.1,0-.14.11c-.38.61-.78,1.2-1.21,1.77a14.45,14.45,0,0,1-1.39,1.62,1,1,0,0,1-.38.26,1.14,1.14,0,0,1-.44.08,1.2,1.2,0,0,1-1-.5,1.73,1.73,0,0,1-.28-.91A1.81,1.81,0,0,1,671,186a20.45,20.45,0,0,0,2.86-4.14,14,14,0,0,0,1.5-4.43c.05-.12,0-.19-.18-.19h-2.86a1.31,1.31,0,0,1-.94-.39,1.28,1.28,0,0,1-.41-1,1.33,1.33,0,0,1,.39-.94,1.28,1.28,0,0,1,1-.41h3c.13,0,.19-.06.19-.18v-3.08c0-.17-.06-.23-.19-.19a10.8,10.8,0,0,1-1.27.19l-1.27.13a1.27,1.27,0,0,1-1-.37,1.25,1.25,0,0,1-.42-.95,1.29,1.29,0,0,1,.34-.91,1.23,1.23,0,0,1,.85-.41,32.77,32.77,0,0,0,4.1-.68,28.24,28.24,0,0,0,3.31-.95,1.46,1.46,0,0,1,.53-.1,1.22,1.22,0,0,1,.69.21,1,1,0,0,1,.44.58,1.73,1.73,0,0,1,.09.53,1.43,1.43,0,0,1-.22.77,1.24,1.24,0,0,1-.59.52c-.38.14-.78.29-1.19.42s-.87.27-1.35.39c-.11,0-.16.11-.16.19v3.71c0,.12.06.18.19.18h2.29a1.3,1.3,0,0,1,1,.41,1.33,1.33,0,0,1,.39.94,1.28,1.28,0,0,1-.41,1,1.33,1.33,0,0,1-.94.39h-2.29a.17.17,0,0,0-.19.19v.82a.33.33,0,0,0,.09.22,13.12,13.12,0,0,1,1.65,2.62,18.32,18.32,0,0,1,1.18,2.93,1.62,1.62,0,0,1,0,.35A1.44,1.44,0,0,1,680.12,185.75Zm18,4a1.43,1.43,0,0,1,.66,1.22,1.39,1.39,0,0,1-.22.72,4.43,4.43,0,0,1-1.73,1.65,5.79,5.79,0,0,1-2.57.49,5.68,5.68,0,0,1-3.45-.83,3.18,3.18,0,0,1-1.07-2.66v-8.25a.17.17,0,0,0-.19-.19h-.81c-.11,0-.18.06-.22.19a15.3,15.3,0,0,1-2.4,6.89,13,13,0,0,1-5.23,4.56,1.12,1.12,0,0,1-.53.13,1.37,1.37,0,0,1-.93-.38,1.24,1.24,0,0,1-.42-1,1.48,1.48,0,0,1,.88-1.38,10.35,10.35,0,0,0,4-3.56,12.39,12.39,0,0,0,1.93-5.29c0-.13,0-.19-.16-.19h-1.1a2.08,2.08,0,0,1-2.07-2.07v-5.68a2,2,0,0,1,.6-1.43,1.94,1.94,0,0,1,1.47-.61h4.68a.3.3,0,0,0,.22-.1,11.63,11.63,0,0,0,1.63-2.24,14.14,14.14,0,0,0,1.16-2.62,1.2,1.2,0,0,1,1.26-.94h.18l.19,0a1.37,1.37,0,0,1,1,1.35,1.23,1.23,0,0,1,0,.19.77.77,0,0,1-.05.19,13.54,13.54,0,0,1-.76,2,17.19,17.19,0,0,1-1.09,1.93.14.14,0,0,0,0,.16.17.17,0,0,0,.14.06h1.29a2.06,2.06,0,0,1,1.46.59,2,2,0,0,1,.61,1.45v5.68a2,2,0,0,1-.61,1.46,2,2,0,0,1-1.46.61h-1.76a.17.17,0,0,0-.19.19v8.1a.81.81,0,0,0,.39.81,4.44,4.44,0,0,0,1.65.19,2.33,2.33,0,0,0,1.08-.2,2.57,2.57,0,0,0,.77-.84,1.22,1.22,0,0,1,1.1-.62A1.16,1.16,0,0,1,698.1,189.77Zm-12.59-18.61a13.47,13.47,0,0,0-.67-1.57,10.93,10.93,0,0,0-.77-1.32,1.2,1.2,0,0,1-.22-.72,1.08,1.08,0,0,1,.69-1.1,1.53,1.53,0,0,1,.66-.13,1.47,1.47,0,0,1,1.41.85c.25.48.51,1,.76,1.55s.46,1.08.62,1.56a.31.31,0,0,1,.07.2v.2a1.44,1.44,0,0,1-.35.93,1.15,1.15,0,0,1-.94.42,1.28,1.28,0,0,1-.75-.23A1.4,1.4,0,0,1,685.51,171.16Zm8.2,3.76a.17.17,0,0,0-.19-.19h-8.16a.17.17,0,0,0-.19.19v4.18c0,.12.06.18.19.18h8.16a.17.17,0,0,0,.19-.18Z"/><path class="cls-1" d="M716.4,190.93h11.45a1.25,1.25,0,0,1,1,.41,1.4,1.4,0,0,1,0,1.94,1.28,1.28,0,0,1-1,.41H716.4q-5.77,0-8.76-3.33c-.06-.1-.14-.1-.25,0a14.67,14.67,0,0,1-1.65,1.82,17.46,17.46,0,0,1-1.74,1.48,1.18,1.18,0,0,1-.66.22,1.15,1.15,0,0,1-1.1-.72,1.45,1.45,0,0,1-.15-.63,1.53,1.53,0,0,1,.62-1.26,20,20,0,0,0,1.73-1.66,11.63,11.63,0,0,0,1.54-2,.52.52,0,0,0,.06-.22v-6.59a.17.17,0,0,0-.19-.19h-2.16a1.25,1.25,0,0,1-1-.41,1.34,1.34,0,0,1,1-2.29h3a2,2,0,0,1,1.46.61,2,2,0,0,1,.61,1.46v7.28a.26.26,0,0,0,.07.22,7.16,7.16,0,0,0,3,2.66A10.89,10.89,0,0,0,716.4,190.93Zm-13-20.31a1.22,1.22,0,0,1-.77-.48,1.46,1.46,0,0,1-.3-.9,1.17,1.17,0,0,1,.41-.93,1.33,1.33,0,0,1,.91-.36h.15a.25.25,0,0,1,.16,0,24.07,24.07,0,0,1,2.34.61c.85.26,1.67.55,2.46.86a1.47,1.47,0,0,1,.73.61,1.85,1.85,0,0,1,.25.93,1.2,1.2,0,0,1-1.2,1.22,1.44,1.44,0,0,1-.47-.09c-.67-.29-1.41-.58-2.24-.85A24.58,24.58,0,0,0,703.44,170.62Zm25.32,14.82a1.64,1.64,0,0,1,.85,1.47,1.34,1.34,0,0,1-.39,1,1.2,1.2,0,0,1-.86.39,1.24,1.24,0,0,1-.57-.16,14.36,14.36,0,0,1-3.28-2.58,22,22,0,0,1-2.82-3.68,26,26,0,0,1-2.15-4.28c0-.08-.06-.13-.11-.13s-.1.06-.14.16a19.56,19.56,0,0,1-2.31,4.52,20.67,20.67,0,0,1-2.84,3.31,18.63,18.63,0,0,1-2.79,2.18,1.41,1.41,0,0,1-.69.22,1.29,1.29,0,0,1-1.17-.69,1.38,1.38,0,0,1,.47-1.85,16.84,16.84,0,0,0,5.67-6.1,20.85,20.85,0,0,0,2.4-8.65.17.17,0,0,0-.19-.19h-4a1.31,1.31,0,0,1-.94-.39,1.25,1.25,0,0,1-.41-1,1.26,1.26,0,0,1,.41-1,1.31,1.31,0,0,1,.94-.39h5a1.8,1.8,0,0,1,1.36.57,1.83,1.83,0,0,1,.55,1.35v.69a16.39,16.39,0,0,0,.68,4.67,21.16,21.16,0,0,0,4.38,8A14,14,0,0,0,728.76,185.44Z"/><path class="cls-1" d="M733.19,195.13a.57.57,0,0,1-.38.13.74.74,0,0,1-.5-.2.62.62,0,0,1-.22-.43.55.55,0,0,1,.19-.38,17.82,17.82,0,0,0,4.64-6.48,19.45,19.45,0,0,0,0-15.17,17.62,17.62,0,0,0-4.64-6.47.52.52,0,0,1-.19-.37.56.56,0,0,1,.21-.44.65.65,0,0,1,.48-.19.66.66,0,0,1,.41.12,16.25,16.25,0,0,1,4.5,4.05,17,17,0,0,1,2.7,5.18,18.53,18.53,0,0,1,0,11.41,16.81,16.81,0,0,1-2.7,5.19A16.25,16.25,0,0,1,733.19,195.13Z"/><path class="cls-1" d="M123.47,299.88a14.31,14.31,0,0,0-1.21-2,23.69,23.69,0,0,0-1.45-1.89c-.07-.1-.14-.13-.22-.1s-.12.11-.12.24v13.28a2,2,0,0,1-.61,1.45,2,2,0,0,1-3,0,2,2,0,0,1-.61-1.45V295.81q0-.19-.12-.24c-.08,0-.15,0-.22.09-.67.75-1.34,1.43-2,2s-1.3,1.2-1.94,1.74a1.79,1.79,0,0,1-1.26.44,2,2,0,0,1-1-.27,1.66,1.66,0,0,1-.73-.75,2.25,2.25,0,0,1-.34-1.21,2.5,2.5,0,0,1,.27-1.09,2.36,2.36,0,0,1,.75-.9,33.17,33.17,0,0,0,6.54-6.8,39,39,0,0,0,4.7-9c.13-.23.07-.34-.19-.34h-9.74a2,2,0,0,1-1.45-.61,2,2,0,0,1,0-2.91,2,2,0,0,1,1.48-.6H116a.25.25,0,0,0,.29-.29v-3.78a2,2,0,0,1,.61-1.46,2,2,0,0,1,1.48-.63,2,2,0,0,1,1.45.61,2,2,0,0,1,.63,1.48v3.78a.26.26,0,0,0,.29.29h2.81a2.21,2.21,0,0,1,1.65.68,2.19,2.19,0,0,1,.68,1.6,2.51,2.51,0,0,1-.1.63,46.72,46.72,0,0,1-2.35,6.05,48.1,48.1,0,0,1-2.88,5.24.41.41,0,0,0,.05.43l.48.39a3.05,3.05,0,0,1,.44.44.32.32,0,0,0,.43-.05,21.06,21.06,0,0,0,1.55-2.23,2.13,2.13,0,0,1,1.94-1.16,1.78,1.78,0,0,1,1.84,1.74,1.59,1.59,0,0,1-.14.68A13.48,13.48,0,0,1,126,292a21.45,21.45,0,0,1-1.36,1.77.26.26,0,0,0,0,.38c.42.55.83,1.14,1.24,1.75A21.43,21.43,0,0,1,127,297.8a2.15,2.15,0,0,1,.25,1,2,2,0,0,1-1.07,1.84,1.73,1.73,0,0,1-1,.29A1.8,1.8,0,0,1,123.47,299.88Zm4.95-27.48H146.2a3,3,0,0,1,2.23,1,2.93,2.93,0,0,1,.87,2.25c0,1.42-.08,3.07-.14,4.94s-.14,3.83-.22,5.84-.16,4-.24,5.94-.18,3.72-.29,5.33-.22,2.93-.32,3.93a12.67,12.67,0,0,1-1.43,5,7.27,7.27,0,0,1-2.74,2.81,10.41,10.41,0,0,1-3.65,1.21,25.72,25.72,0,0,1-4.15.24,2,2,0,0,1-1.4-.65,2,2,0,0,1-.58-1.43,1.94,1.94,0,0,1,.65-1.48,2.21,2.21,0,0,1,1.53-.6,16.88,16.88,0,0,0,4.41-.37,3.46,3.46,0,0,0,2.25-1.65,9.71,9.71,0,0,0,1-3.56c.16-1.13.3-2.67.42-4.63s.21-4.1.31-6.44.19-4.67.27-7,.13-4.39.17-6.23a.26.26,0,0,0-.29-.29H138.3a.26.26,0,0,0-.29.29q0,4.47-.51,9.19a54.39,54.39,0,0,1-1.72,9.3,33.67,33.67,0,0,1-3.7,8.6,26.4,26.4,0,0,1-6.47,7.13,1.75,1.75,0,0,1-.56.29,2.2,2.2,0,0,1-.61.09,1.93,1.93,0,0,1-1.69-.92,2.16,2.16,0,0,1-.34-1.21,2.08,2.08,0,0,1,.87-1.79,23.16,23.16,0,0,0,5.53-6.3A30.56,30.56,0,0,0,132,293.6a50.47,50.47,0,0,0,1.45-8.31c.26-2.84.4-5.67.44-8.48a.26.26,0,0,0-.3-.29h-5.13a2.06,2.06,0,0,1-1.46-.6,1.93,1.93,0,0,1-.63-1.43,2.07,2.07,0,0,1,.61-1.46A2,2,0,0,1,128.42,272.4Z"/><path class="cls-1" d="M194,310.4H162.87a3.24,3.24,0,0,1-3.2-3.2V273.37a3.24,3.24,0,0,1,3.2-3.2H194a3.23,3.23,0,0,1,3.2,3.2V307.2a3.23,3.23,0,0,1-3.2,3.2Zm-29.9-36.11a.26.26,0,0,0-.29.29V306a.26.26,0,0,0,.29.29h28.64a.25.25,0,0,0,.29-.29V274.58a.25.25,0,0,0-.29-.29Zm19,25.54h-9.79a3.09,3.09,0,0,1-2.25-.92,3,3,0,0,1-.95-2.28V284.47a3.24,3.24,0,0,1,3.2-3.2h9.79a3.24,3.24,0,0,1,3.2,3.2v12.16a3.23,3.23,0,0,1-3.2,3.2Zm-8.53-14.54a.26.26,0,0,0-.29.29v9.94a.26.26,0,0,0,.29.29h7.27a.26.26,0,0,0,.29-.29v-9.94a.26.26,0,0,0-.29-.29Z"/><path class="cls-1" d="M242.09,302.15a3.56,3.56,0,0,1,2.93,1,3.84,3.84,0,0,1,1.21,2.89,3.71,3.71,0,0,1-1.21,2.85,3.88,3.88,0,0,1-2.93,1c-1.9-.18-3.88-.32-6-.44s-4.11-.17-6.12-.17-4,.06-5.95.17-3.77.26-5.44.44a4,4,0,0,1-3-1,3.68,3.68,0,0,1-1.25-2.85,3.81,3.81,0,0,1,1.25-2.89,3.7,3.7,0,0,1,3-1c2.42.23,4.83.4,7.25.52a.68.68,0,0,0,.77-.78V256.25c0-.74-.31-.95-.94-.6l-6,2.85a5,5,0,0,1-1.81.43,3.66,3.66,0,0,1-3.45-2.16,3.86,3.86,0,0,1-.35-1.73,4,4,0,0,1,.57-2.07,3.25,3.25,0,0,1,1.59-1.38L229,245.47a3.81,3.81,0,0,1,1.73-.43,3.7,3.7,0,0,1,2.59,1,3.6,3.6,0,0,1,1.12,2.76v53.06c0,.52.29.78.86.78Q238.9,302.49,242.09,302.15Z"/><path class="cls-1" d="M270.47,284.72a22.71,22.71,0,0,1-10.83-2.5,18.67,18.67,0,0,1-7.37-6.94,19.4,19.4,0,0,1-2.68-10.23,20.74,20.74,0,0,1,2.76-10.78A19.27,19.27,0,0,1,260,247a23.53,23.53,0,0,1,11.3-2.63,27,27,0,0,1,8.59,1.42,20,20,0,0,1,7.72,4.79,23.7,23.7,0,0,1,5.52,9.06,41.74,41.74,0,0,1,2.07,14.15,55.93,55.93,0,0,1-3,19.28,26.9,26.9,0,0,1-8.59,12.38,21.58,21.58,0,0,1-13.54,4.31,22.33,22.33,0,0,1-9.54-1.85,15.07,15.07,0,0,1-5.95-4.66,9.41,9.41,0,0,1-2-5.48,6,6,0,0,1,1.68-4.44,5.4,5.4,0,0,1,3.93-1.68,4.78,4.78,0,0,1,3.84,1.68,5.54,5.54,0,0,1,1.42,3.66,4.56,4.56,0,0,1-.69,2.59c-.29.46-.29.84,0,1.12,1.27,1.33,3.65,2,7.16,2a14.47,14.47,0,0,0,9.36-3.32,22.33,22.33,0,0,0,6.48-9.19,38.18,38.18,0,0,0,2.54-13.46c0-.29-.12-.43-.34-.43a1.84,1.84,0,0,0-1.3.86,19.41,19.41,0,0,1-5.48,4.53,24,24,0,0,1-5.95,2.37A21.41,21.41,0,0,1,270.47,284.72Zm1.38-33.3q-6.72,0-10.87,3.58a11.89,11.89,0,0,0-4.14,9.45,16.28,16.28,0,0,0,1.34,7.2,9.81,9.81,0,0,0,3.53,4.1,12.39,12.39,0,0,0,4.71,1.77,20.82,20.82,0,0,0,4.83.21,15.79,15.79,0,0,0,7.5-2.41,17.38,17.38,0,0,0,5.57-5.52,13.1,13.1,0,0,0,2.11-7.08,2.78,2.78,0,0,0-.17-1.12,15.52,15.52,0,0,0-5.39-7.72A15.33,15.33,0,0,0,271.85,251.42Z"/><path class="cls-1" d="M304.38,313.26a2.35,2.35,0,0,1-1,.26,1.8,1.8,0,0,1-1.42-.65,2.19,2.19,0,0,1-.56-1.51,1.84,1.84,0,0,1,.95-1.64,18.93,18.93,0,0,0,4.7-4.4,7.27,7.27,0,0,0,1.68-4,2,2,0,0,0-2-2.15,5.64,5.64,0,0,1-3.84-2.16,6.17,6.17,0,0,1-1.25-3.71,6.65,6.65,0,0,1,1.55-4.27,5.21,5.21,0,0,1,4.49-1.86,5.68,5.68,0,0,1,5,2.85,12.43,12.43,0,0,1,1.85,6.9,18.89,18.89,0,0,1-10.09,16.31Z"/><path class="cls-1" d="M341.65,284.72a22.66,22.66,0,0,1-10.83-2.5,18.7,18.7,0,0,1-7.38-6.94,19.49,19.49,0,0,1-2.67-10.23,20.74,20.74,0,0,1,2.76-10.78,19.27,19.27,0,0,1,7.68-7.29,23.51,23.51,0,0,1,11.3-2.63,26.89,26.89,0,0,1,8.58,1.42,20,20,0,0,1,7.73,4.79,23.7,23.7,0,0,1,5.52,9.06,41.74,41.74,0,0,1,2.07,14.15,55.68,55.68,0,0,1-3,19.28,26.81,26.81,0,0,1-8.58,12.38,21.61,21.61,0,0,1-13.55,4.31,22.28,22.28,0,0,1-9.53-1.85,15.07,15.07,0,0,1-5.95-4.66,9.34,9.34,0,0,1-2-5.48,6,6,0,0,1,1.68-4.44,5.38,5.38,0,0,1,3.93-1.68,4.78,4.78,0,0,1,3.84,1.68,5.54,5.54,0,0,1,1.42,3.66,4.56,4.56,0,0,1-.69,2.59c-.29.46-.29.84,0,1.12q1.89,2,7.16,2a14.47,14.47,0,0,0,9.36-3.32,22.32,22.32,0,0,0,6.47-9.19,38.17,38.17,0,0,0,2.55-13.46c0-.29-.12-.43-.35-.43a1.85,1.85,0,0,0-1.29.86,19.41,19.41,0,0,1-5.48,4.53,24.11,24.11,0,0,1-5.95,2.37A21.49,21.49,0,0,1,341.65,284.72Zm1.38-33.3q-6.73,0-10.87,3.58a11.89,11.89,0,0,0-4.14,9.45,16.44,16.44,0,0,0,1.33,7.2,9.83,9.83,0,0,0,3.54,4.1,12.35,12.35,0,0,0,4.7,1.77,20.87,20.87,0,0,0,4.83.21,15.79,15.79,0,0,0,7.51-2.41,17.48,17.48,0,0,0,5.57-5.52,13.19,13.19,0,0,0,2.11-7.08,2.78,2.78,0,0,0-.17-1.12,15.53,15.53,0,0,0-5.4-7.72A15.3,15.3,0,0,0,343,251.42Z"/><path class="cls-1" d="M414.46,274c-.28.12-.43.26-.43.44s.18.34.52.51a18.34,18.34,0,0,1,8.2,6.22,15.56,15.56,0,0,1,3,9.4,16.77,16.77,0,0,1-3.19,10.09,21,21,0,0,1-8.81,6.86,35.61,35.61,0,0,1-26,0,20.89,20.89,0,0,1-8.84-6.86,16.71,16.71,0,0,1-3.19-10.09,15.63,15.63,0,0,1,2.84-9.1,19.87,19.87,0,0,1,7.85-6.52c.64-.28.67-.6.09-1a14.94,14.94,0,0,1-5.26-5.39,14,14,0,0,1-2-7.2,15.25,15.25,0,0,1,2.72-9,18.1,18.1,0,0,1,7.59-6.09,27,27,0,0,1,11.18-2.2,26.76,26.76,0,0,1,11.13,2.2,18.48,18.48,0,0,1,7.59,6.09,15.07,15.07,0,0,1,2.76,9,13.43,13.43,0,0,1-2.07,7.16A15.66,15.66,0,0,1,414.46,274Zm-13.71,29.25q7.94,0,12.64-3.45a10.89,10.89,0,0,0,4.7-9.23,9.79,9.79,0,0,0-2.25-6.38,15,15,0,0,0-6.12-4.36,23.54,23.54,0,0,0-9-1.6,22.16,22.16,0,0,0-8.8,1.69,16.4,16.4,0,0,0-6.3,4.44,9.39,9.39,0,0,0-2.33,6.21,10.88,10.88,0,0,0,4.57,9.36Q392.47,303.28,400.75,303.27Zm-13.81-41.75a8.64,8.64,0,0,0,3.84,7.29,16.49,16.49,0,0,0,10,2.8,17.57,17.57,0,0,0,7-1.34,12.55,12.55,0,0,0,5-3.66,8,8,0,0,0,1.85-5.09,9,9,0,0,0-3.84-7.51,15.93,15.93,0,0,0-10-2.93,16.64,16.64,0,0,0-6.95,1.42,13.16,13.16,0,0,0-5,3.75A8.24,8.24,0,0,0,386.94,261.52Z"/><path class="cls-1" d="M460,244.26a23.41,23.41,0,0,1,13.59,3.88,24.87,24.87,0,0,1,8.71,11.09,44.13,44.13,0,0,1,3.06,17.3,47.84,47.84,0,0,1-3,17.94A24.89,24.89,0,0,1,473.69,306a25.54,25.54,0,0,1-27.35,0,24.68,24.68,0,0,1-8.62-11.48,48.48,48.48,0,0,1-3-17.94,44.13,44.13,0,0,1,3.06-17.3,24.82,24.82,0,0,1,8.72-11.09A23.21,23.21,0,0,1,460,244.26Zm0,58.41a14.51,14.51,0,0,0,9.36-3.15,19.78,19.78,0,0,0,6-9,40.69,40.69,0,0,0,2.11-13.8,37.52,37.52,0,0,0-2.15-13.33,19.54,19.54,0,0,0-6.09-8.71,15.41,15.41,0,0,0-18.46,0,19.45,19.45,0,0,0-6.08,8.71,37.29,37.29,0,0,0-2.16,13.33q0,12,4.66,19A14.57,14.57,0,0,0,460,302.67Z"/><path class="cls-1" d="M501.55,273.89h27a2.7,2.7,0,0,1,2,.84,2.78,2.78,0,0,1,.82,2V305q0,4.94-6.91,4.73a2,2,0,0,1-1.4-.67,2.18,2.18,0,0,1-.58-1.52,1.74,1.74,0,0,1,.58-1.31,1.63,1.63,0,0,1,1.35-.45,12.25,12.25,0,0,0,2.62-.11.65.65,0,0,0,.56-.67v-11a.23.23,0,0,0-.26-.26H502.75a.23.23,0,0,0-.26.26v14a1.91,1.91,0,0,1-1.89,1.89,1.85,1.85,0,0,1-1.33-.54,1.81,1.81,0,0,1-.56-1.35V276.73a2.78,2.78,0,0,1,.82-2A2.7,2.7,0,0,1,501.55,273.89Zm11.63,4c0-.17-.09-.25-.26-.25H502.75c-.17,0-.26.08-.26.25v11.76a.23.23,0,0,0,.26.26h10.17a.23.23,0,0,0,.26-.26Zm4-.25c-.17,0-.26.08-.26.25v11.76a.23.23,0,0,0,.26.26h10.21a.23.23,0,0,0,.26-.26V277.88c0-.17-.09-.25-.26-.25Z"/><path class="cls-1" d="M577,283.91a13.18,13.18,0,0,1-5.13-1,23.89,23.89,0,0,1-4.48-2.47l-4.2-2.93a26.67,26.67,0,0,0-4.28-2.44,11.17,11.17,0,0,0-4.66-1A12.07,12.07,0,0,0,550,275a19.44,19.44,0,0,0-5,3,2.82,2.82,0,0,1-1.69.63,2.64,2.64,0,0,1-1.94-.81,2.47,2.47,0,0,1-.82-1.8,2.16,2.16,0,0,1,.92-1.77,22.35,22.35,0,0,1,6.36-3.67,17.28,17.28,0,0,1,5.72-1.06,16.82,16.82,0,0,1,5.69.95,28.86,28.86,0,0,1,5,2.4q2.4,1.45,4.52,2.9a33.23,33.23,0,0,0,4,2.4,8,8,0,0,0,3.6,1,17.34,17.34,0,0,0,3.39-.29,8,8,0,0,0,2.69-1.06,16.53,16.53,0,0,0,2.82-2.26,2.16,2.16,0,0,1,1.56-.7,2.25,2.25,0,0,1,1.73.84,2.87,2.87,0,0,1,.74,1.91,2.48,2.48,0,0,1-1,2.05,21.07,21.07,0,0,1-5.3,3.25A16,16,0,0,1,577,283.91Z"/><path class="cls-1" d="M546.92,309.13a9,9,0,0,1-2.54-2.28,9.61,9.61,0,0,1-1.51-2.91,10.36,10.36,0,0,1,0-6.42,9.85,9.85,0,0,1,1.51-2.91,9.12,9.12,0,0,1,2.54-2.27.28.28,0,0,1,.21-.07.42.42,0,0,1,.28.1.33.33,0,0,1,.12.25.29.29,0,0,1-.1.21,10.05,10.05,0,0,0-2.6,3.63,10.85,10.85,0,0,0-.88,4.27,10.73,10.73,0,0,0,.88,4.26,10.12,10.12,0,0,0,2.6,3.65.29.29,0,0,1,.1.21.37.37,0,0,1-.11.24.41.41,0,0,1-.28.11A.31.31,0,0,1,546.92,309.13Z"/><path class="cls-1" d="M554.31,303.93a.79.79,0,0,1-.25.05.63.63,0,0,1-.62-.49c0-.07,0-.15-.05-.23a1.87,1.87,0,0,1-.07-.22s0-.06-.07-.05a.08.08,0,0,0-.06.09v4.73a.7.7,0,0,1-.22.52.76.76,0,0,1-1.07,0,.7.7,0,0,1-.22-.52v-4.38c0-.06,0-.09,0-.09s0,0-.08.06c-.21.34-.43.67-.67,1a8.74,8.74,0,0,1-.79.91.51.51,0,0,1-.21.15.74.74,0,0,1-.25.05.67.67,0,0,1-.56-.29.88.88,0,0,1-.16-.51,1,1,0,0,1,.24-.65,11,11,0,0,0,1.61-2.33,7.92,7.92,0,0,0,.85-2.49c0-.07,0-.1-.11-.1h-1.6a.73.73,0,0,1-.53-.22.7.7,0,0,1-.23-.54.73.73,0,0,1,.22-.53.71.71,0,0,1,.54-.23h1.67c.07,0,.11,0,.11-.1v-1.73c0-.1,0-.13-.11-.11-.23.05-.47.08-.71.11l-.72.07a.75.75,0,0,1-.55-.2.75.75,0,0,1-.05-1,.65.65,0,0,1,.48-.23,20.06,20.06,0,0,0,2.3-.38,14.43,14.43,0,0,0,1.86-.54.86.86,0,0,1,.3-.05.68.68,0,0,1,.39.11.64.64,0,0,1,.25.33,1,1,0,0,1,0,.3.85.85,0,0,1-.12.43.79.79,0,0,1-.34.29l-.67.24-.76.22a.11.11,0,0,0-.09.1v2.09c0,.07,0,.1.11.1h1.29a.74.74,0,0,1,.54.23.77.77,0,0,1,.22.53.77.77,0,0,1-.76.76H553.3c-.07,0-.11,0-.11.1v.46a.18.18,0,0,0,.06.13,7.75,7.75,0,0,1,.92,1.47,9.77,9.77,0,0,1,.66,1.65.53.53,0,0,1,0,.19A.82.82,0,0,1,554.31,303.93Zm10.1,2.25a.81.81,0,0,1,.37.69.83.83,0,0,1-.12.41,2.55,2.55,0,0,1-1,.92,3.14,3.14,0,0,1-1.45.28,3.2,3.2,0,0,1-1.94-.47,1.77,1.77,0,0,1-.6-1.49v-4.64c0-.07,0-.11-.1-.11h-.46c-.06,0-.1,0-.13.11a8.48,8.48,0,0,1-1.34,3.87,7.3,7.3,0,0,1-2.94,2.57.63.63,0,0,1-.3.07.77.77,0,0,1-.52-.21.71.71,0,0,1-.24-.55.84.84,0,0,1,.49-.78,5.73,5.73,0,0,0,2.24-2,6.81,6.81,0,0,0,1.08-3c0-.07,0-.11-.09-.11h-.62a1.09,1.09,0,0,1-.81-.34,1.12,1.12,0,0,1-.35-.82v-3.19a1.1,1.1,0,0,1,.34-.81,1.13,1.13,0,0,1,.82-.34h2.63a.21.21,0,0,0,.13,0,7,7,0,0,0,.91-1.26,8.47,8.47,0,0,0,.66-1.48.67.67,0,0,1,.7-.53h.11l.1,0a.77.77,0,0,1,.59.76s0,.07,0,.1l0,.11a7.31,7.31,0,0,1-.43,1.1,9.56,9.56,0,0,1-.61,1.09.08.08,0,0,0,0,.09.1.1,0,0,0,.08,0h.72a1.11,1.11,0,0,1,.82.34,1.08,1.08,0,0,1,.35.81v3.19a1.18,1.18,0,0,1-1.17,1.16h-1a.1.1,0,0,0-.11.11v4.55c0,.24.07.39.22.46a2.58,2.58,0,0,0,.93.11,1.17,1.17,0,0,0,.6-.12,1.44,1.44,0,0,0,.44-.47.67.67,0,0,1,.61-.35A.67.67,0,0,1,564.41,306.18Zm-7.07-10.46c-.12-.31-.25-.61-.38-.88a5.76,5.76,0,0,0-.43-.74.71.71,0,0,1-.13-.4.6.6,0,0,1,.39-.62.87.87,0,0,1,.37-.07.85.85,0,0,1,.8.47c.14.27.28.57.42.88a9.31,9.31,0,0,1,.35.87.17.17,0,0,1,0,.11v.12a.81.81,0,0,1-.2.52.64.64,0,0,1-.53.24.8.8,0,0,1-.42-.13A.75.75,0,0,1,557.34,295.72Zm4.6,2.12c0-.07,0-.11-.1-.11h-4.59c-.07,0-.1,0-.1.11v2.35c0,.07,0,.1.1.1h4.59c.07,0,.1,0,.1-.1Z"/><path class="cls-1" d="M574.7,306.84h6.43a.69.69,0,0,1,.54.23.73.73,0,0,1,.22.54.75.75,0,0,1-.22.55.73.73,0,0,1-.54.23H574.7a6.27,6.27,0,0,1-4.93-1.87c0-.06-.08-.06-.14,0a9.63,9.63,0,0,1-.92,1,10.62,10.62,0,0,1-1,.83.66.66,0,0,1-1-.28.79.79,0,0,1-.09-.35A.85.85,0,0,1,567,307a13.49,13.49,0,0,0,1-.93,7,7,0,0,0,.86-1.15.41.41,0,0,0,0-.12v-3.71c0-.07,0-.1-.11-.1h-1.22a.74.74,0,0,1-.54-.23.79.79,0,0,1-.22-.53.77.77,0,0,1,.22-.54.73.73,0,0,1,.54-.22h1.71a1.11,1.11,0,0,1,.82.34,1.14,1.14,0,0,1,.35.82v4.1a.19.19,0,0,0,0,.12,4,4,0,0,0,1.67,1.49A6.08,6.08,0,0,0,574.7,306.84Zm-7.29-11.42a.64.64,0,0,1-.43-.27.82.82,0,0,1-.17-.5.67.67,0,0,1,.23-.52.73.73,0,0,1,.51-.21h.09l.09,0a12.35,12.35,0,0,1,1.31.35c.48.14.94.31,1.39.48a.8.8,0,0,1,.4.35.92.92,0,0,1,.14.52.63.63,0,0,1-.2.49.64.64,0,0,1-.47.19.63.63,0,0,1-.26-.05q-.57-.24-1.26-.48C568.31,295.64,567.86,295.52,567.41,295.42Zm14.24,8.33a1,1,0,0,1,.47.83.72.72,0,0,1-.22.55.67.67,0,0,1-.48.22.69.69,0,0,1-.32-.08,8,8,0,0,1-1.84-1.46,11.38,11.38,0,0,1-1.59-2.06,14.68,14.68,0,0,1-1.21-2.41s0-.07-.06-.07-.06,0-.08.09a11,11,0,0,1-1.3,2.54,11.52,11.52,0,0,1-1.59,1.86,10.7,10.7,0,0,1-1.57,1.22.78.78,0,0,1-.39.13.71.71,0,0,1-.65-.39.68.68,0,0,1-.11-.37.79.79,0,0,1,.37-.67,9.51,9.51,0,0,0,3.18-3.43,11.76,11.76,0,0,0,1.35-4.86c0-.07,0-.11-.1-.11h-2.24a.73.73,0,0,1-.53-.22.74.74,0,0,1,0-1.07.73.73,0,0,1,.53-.22h2.84a1,1,0,0,1,.76.31,1.06,1.06,0,0,1,.31.76v.39a9.4,9.4,0,0,0,.38,2.63,11.88,11.88,0,0,0,1,2.43,11.23,11.23,0,0,0,1.44,2A7.78,7.78,0,0,0,581.65,303.75Z"/><path class="cls-1" d="M584.13,309.2a.31.31,0,0,1-.21.07.41.41,0,0,1-.28-.11.36.36,0,0,1-.13-.24.31.31,0,0,1,.11-.21,9.91,9.91,0,0,0,2.61-3.65,10.86,10.86,0,0,0,0-8.52,9.8,9.8,0,0,0-2.61-3.64.31.31,0,0,1-.11-.21.33.33,0,0,1,.12-.25.39.39,0,0,1,.27-.1.33.33,0,0,1,.23.07,9.08,9.08,0,0,1,2.53,2.27,9.65,9.65,0,0,1,1.52,2.91,10.55,10.55,0,0,1,0,6.42,9.42,9.42,0,0,1-1.52,2.91A9,9,0,0,1,584.13,309.2Z"/></g></g></svg>