<svg xmlns="http://www.w3.org/2000/svg" viewBox="0 0 387.77 60.08"><g id="レイヤー_2" data-name="レイヤー 2"><g id="レイヤー_1-2" data-name="レイヤー 1"><path d="M95.26,43.84a2.65,2.65,0,0,1,2.22.75,2.92,2.92,0,0,1,.91,2.19,2.8,2.8,0,0,1-.91,2.15,3,3,0,0,1-2.22.78c-1.43-.13-2.93-.24-4.5-.32s-3.11-.13-4.63-.13-3,0-4.5.13-2.85.19-4.11.32a3,3,0,0,1-2.25-.78,2.74,2.74,0,0,1-1-2.15,2.85,2.85,0,0,1,1-2.19,2.74,2.74,0,0,1,2.25-.75c1.82.17,3.65.31,5.48.39a.51.51,0,0,0,.58-.59V9.13c0-.56-.24-.71-.71-.45l-4.51,2.15a3.57,3.57,0,0,1-1.36.33,2.79,2.79,0,0,1-2.62-1.63,3,3,0,0,1-.26-1.31,3,3,0,0,1,.43-1.57,2.49,2.49,0,0,1,1.2-1L85.34,1A2.89,2.89,0,0,1,86.65.65a2.79,2.79,0,0,1,2,.79,2.7,2.7,0,0,1,.85,2.08V43.64c0,.4.21.59.65.59C91.93,44.15,93.65,44,95.26,43.84Z"/><path d="M119.46,50a3,3,0,0,1-2.25-.78,2.78,2.78,0,0,1-.94-2.16,2.84,2.84,0,0,1,.94-2.18,2.74,2.74,0,0,1,2.25-.75c.7.08,1.44.16,2.22.23s1.55.12,2.29.16a.52.52,0,0,0,.58-.59V36.14a.51.51,0,0,0-.58-.58H105.63A2.72,2.72,0,0,1,103,33.73a4.14,4.14,0,0,1-.2-1.31,3.33,3.33,0,0,1,.59-2l19-27.86A4.06,4.06,0,0,1,128.79,2,4.14,4.14,0,0,1,130,4.89V29.68a.52.52,0,0,0,.59.59h6.52A2.67,2.67,0,0,1,139,31a2.48,2.48,0,0,1,.78,1.86,2.57,2.57,0,0,1-.78,1.89,2.62,2.62,0,0,1-1.9.79h-6.52a.52.52,0,0,0-.59.58V44a.52.52,0,0,0,.59.59c.74,0,1.5-.1,2.28-.16s1.53-.15,2.22-.23a2.74,2.74,0,0,1,2.25.75,2.85,2.85,0,0,1,.95,2.18,2.79,2.79,0,0,1-.95,2.16,3,3,0,0,1-2.25.78c-1.35-.13-2.67-.24-4-.33s-2.59-.13-3.85-.13-2.53,0-3.81.13S120.86,49.91,119.46,50Zm5.09-39.86c0-.26-.07-.44-.22-.52s-.32,0-.49.26L110.46,29.55a1.15,1.15,0,0,0-.13.33c0,.26.17.39.52.39H124a.51.51,0,0,0,.58-.59Z"/><path d="M144.25,59.89a1.72,1.72,0,0,1-.78.19,1.36,1.36,0,0,1-1.07-.48,1.68,1.68,0,0,1-.43-1.15,1.41,1.41,0,0,1,.72-1.24,14.13,14.13,0,0,0,3.55-3.32,5.53,5.53,0,0,0,1.28-3,1.5,1.5,0,0,0-1.5-1.63,4.29,4.29,0,0,1-2.91-1.64,4.67,4.67,0,0,1-.94-2.8,5.06,5.06,0,0,1,1.17-3.23,3.9,3.9,0,0,1,3.39-1.4,4.29,4.29,0,0,1,3.75,2.15,9.34,9.34,0,0,1,1.41,5.22,14.32,14.32,0,0,1-7.64,12.33Z"/><path d="M173.74,30.66a17.18,17.18,0,0,1-8.19-1.89A14,14,0,0,1,160,23.52a14.69,14.69,0,0,1-2-7.73A15.73,15.73,0,0,1,160,7.63a14.62,14.62,0,0,1,5.81-5.51,17.77,17.77,0,0,1,8.54-2,20.31,20.31,0,0,1,6.49,1.08,15,15,0,0,1,5.84,3.62,17.87,17.87,0,0,1,4.18,6.85,31.7,31.7,0,0,1,1.56,10.7A42.23,42.23,0,0,1,190.21,37a20.23,20.23,0,0,1-6.49,9.36,16.31,16.31,0,0,1-10.24,3.26,16.86,16.86,0,0,1-7.21-1.4,11.45,11.45,0,0,1-4.5-3.52,7.13,7.13,0,0,1-1.53-4.15,4.54,4.54,0,0,1,1.27-3.36,4.11,4.11,0,0,1,3-1.27,3.64,3.64,0,0,1,2.9,1.27,4.22,4.22,0,0,1,1.08,2.78,3.49,3.49,0,0,1-.52,2c-.22.35-.22.63,0,.85.95,1,2.76,1.5,5.41,1.5a10.92,10.92,0,0,0,7.08-2.51,16.88,16.88,0,0,0,4.89-6.95,28.68,28.68,0,0,0,1.93-10.17c0-.22-.09-.33-.26-.33a1.38,1.38,0,0,0-1,.65,14.65,14.65,0,0,1-4.15,3.43,18.42,18.42,0,0,1-4.5,1.79A16,16,0,0,1,173.74,30.66Zm1-25.18a12.07,12.07,0,0,0-8.22,2.71,9,9,0,0,0-3.14,7.14,12.35,12.35,0,0,0,1,5.45,7.37,7.37,0,0,0,2.67,3.1,9.29,9.29,0,0,0,3.55,1.33,15.72,15.72,0,0,0,3.66.17A12,12,0,0,0,180,23.55a13.1,13.1,0,0,0,4.21-4.17,9.88,9.88,0,0,0,1.6-5.35,2,2,0,0,0-.13-.85,11.78,11.78,0,0,0-4.08-5.84A11.56,11.56,0,0,0,174.79,5.48Z"/><path d="M228.8,22.57c-.22.09-.32.2-.32.33s.13.26.39.39a13.82,13.82,0,0,1,6.2,4.7,11.79,11.79,0,0,1,2.28,7.11,12.66,12.66,0,0,1-2.42,7.63,15.78,15.78,0,0,1-6.65,5.19,26.93,26.93,0,0,1-19.67,0,15.85,15.85,0,0,1-6.69-5.19,12.65,12.65,0,0,1-2.41-7.63,11.81,11.81,0,0,1,2.15-6.88,15,15,0,0,1,5.94-4.93c.48-.22.5-.46.07-.72a11.34,11.34,0,0,1-4-4.07,10.6,10.6,0,0,1-1.51-5.45,11.55,11.55,0,0,1,2.06-6.79A13.72,13.72,0,0,1,210,1.66,20.32,20.32,0,0,1,218.43,0a20.07,20.07,0,0,1,8.41,1.66,14.08,14.08,0,0,1,5.75,4.6,11.43,11.43,0,0,1,2.08,6.79,10.16,10.16,0,0,1-1.56,5.41A11.83,11.83,0,0,1,228.8,22.57ZM218.43,44.69q6,0,9.56-2.61a8.23,8.23,0,0,0,3.55-7,7.43,7.43,0,0,0-1.69-4.83A11.44,11.44,0,0,0,225.21,27a17.57,17.57,0,0,0-6.78-1.21A16.86,16.86,0,0,0,211.77,27,12.53,12.53,0,0,0,207,30.4a7.12,7.12,0,0,0-1.76,4.7,8.24,8.24,0,0,0,3.46,7.08Q212.16,44.69,218.43,44.69ZM208,13.11a6.55,6.55,0,0,0,2.9,5.52,12.51,12.51,0,0,0,7.54,2.12,13.26,13.26,0,0,0,5.28-1A9.41,9.41,0,0,0,227.46,17a6,6,0,0,0,1.41-3.85A6.84,6.84,0,0,0,226,7.44a12,12,0,0,0-7.53-2.22,12.51,12.51,0,0,0-5.25,1.08,10,10,0,0,0-3.79,2.83A6.26,6.26,0,0,0,208,13.11Z"/><path d="M263.25.07A17.67,17.67,0,0,1,273.52,3a18.74,18.74,0,0,1,6.59,8.38,33.29,33.29,0,0,1,2.32,13.08A36.32,36.32,0,0,1,280.15,38a18.87,18.87,0,0,1-6.56,8.68,19.32,19.32,0,0,1-20.68,0A18.62,18.62,0,0,1,246.38,38a36.76,36.76,0,0,1-2.25-13.57,33.47,33.47,0,0,1,2.32-13.08A18.74,18.74,0,0,1,253,3,17.56,17.56,0,0,1,263.25.07Zm0,44.16a11,11,0,0,0,7.08-2.38A15,15,0,0,0,274.89,35a30.61,30.61,0,0,0,1.6-10.43,28.14,28.14,0,0,0-1.63-10.08,14.79,14.79,0,0,0-4.6-6.59,11.66,11.66,0,0,0-14,0,14.79,14.79,0,0,0-4.6,6.59,28.14,28.14,0,0,0-1.63,10.08q0,9.06,3.52,14.35A11,11,0,0,0,263.25,44.23Z"/><path d="M291.78,19.56h22.28a2.21,2.21,0,0,1,1.66.69,2.28,2.28,0,0,1,.68,1.64V45.16q0,4.06-5.7,3.89a1.6,1.6,0,0,1-1.15-.55,1.74,1.74,0,0,1-.47-1.25,1.42,1.42,0,0,1,.47-1.08,1.36,1.36,0,0,1,1.12-.37,10.55,10.55,0,0,0,2.15-.09.53.53,0,0,0,.46-.55V36.07a.19.19,0,0,0-.21-.21h-20.3a.19.19,0,0,0-.21.21V47.64a1.5,1.5,0,0,1-.46,1.1,1.53,1.53,0,0,1-1.1.46,1.5,1.5,0,0,1-1.09-.45,1.45,1.45,0,0,1-.46-1.11V21.89a2.27,2.27,0,0,1,.67-1.64A2.23,2.23,0,0,1,291.78,19.56Zm9.59,3.29a.2.2,0,0,0-.22-.22h-8.38a.19.19,0,0,0-.21.22v9.69a.19.19,0,0,0,.21.21h8.38a.19.19,0,0,0,.22-.21Zm3.28-.22a.19.19,0,0,0-.21.22v9.69a.19.19,0,0,0,.21.21h8.42a.19.19,0,0,0,.21-.21V22.85a.19.19,0,0,0-.21-.22Z"/><path d="M330.16,49.3a12.56,12.56,0,0,1-3.49-3.14,13.29,13.29,0,0,1-2.09-4,14.53,14.53,0,0,1,0-8.85,13.36,13.36,0,0,1,2.09-4,12.71,12.71,0,0,1,3.49-3.14.51.51,0,0,1,.3-.09.54.54,0,0,1,.38.14.42.42,0,0,1,.17.34.38.38,0,0,1-.14.29,13.91,13.91,0,0,0-3.59,5,15,15,0,0,0,0,11.77,14.12,14.12,0,0,0,3.59,5,.41.41,0,0,1,.14.29.46.46,0,0,1-.15.33.51.51,0,0,1-.38.16A.49.49,0,0,1,330.16,49.3Z"/><path d="M340.36,42.13a1.09,1.09,0,0,1-.34.07.88.88,0,0,1-.54-.18.83.83,0,0,1-.31-.5c0-.1-.05-.2-.08-.31l-.09-.3c0-.07-.05-.09-.1-.07s-.08,0-.08.12v6.52a1,1,0,0,1-1.78.72,1,1,0,0,1-.31-.72v-6c0-.08,0-.12-.06-.13s-.08,0-.11.09c-.29.47-.6.92-.94,1.37A10.76,10.76,0,0,1,334.54,44a.66.66,0,0,1-.29.21,1,1,0,0,1-.34.06.93.93,0,0,1-.78-.39,1.34,1.34,0,0,1-.22-.7,1.4,1.4,0,0,1,.34-.9,15.6,15.6,0,0,0,2.22-3.22,10.88,10.88,0,0,0,1.16-3.43c0-.09,0-.14-.14-.14h-2.22a1.06,1.06,0,0,1-1-1,1,1,0,0,1,.3-.73,1,1,0,0,1,.74-.31h2.31a.13.13,0,0,0,.15-.15V30.89q0-.2-.15-.15c-.32.07-.65.11-1,.15l-1,.09a1,1,0,0,1-1.1-1,1,1,0,0,1,.27-.7.93.93,0,0,1,.65-.32,25.74,25.74,0,0,0,3.18-.52,24.84,24.84,0,0,0,2.57-.74,1.24,1.24,0,0,1,.41-.08,1.06,1.06,0,0,1,.54.16.91.91,0,0,1,.34.45,1.6,1.6,0,0,1,.07.41,1.19,1.19,0,0,1-.17.6,1,1,0,0,1-.46.4c-.3.12-.6.22-.93.33s-.67.21-1,.3c-.09,0-.13.08-.13.15v2.87a.13.13,0,0,0,.15.15h1.78a1,1,0,0,1,.74.31,1,1,0,0,1,.3.73,1,1,0,0,1-.31.75,1.06,1.06,0,0,1-.73.3H339c-.1,0-.15.05-.15.14v.64a.25.25,0,0,0,.08.17,10.42,10.42,0,0,1,1.27,2,14.05,14.05,0,0,1,.92,2.27,1.87,1.87,0,0,1,0,.27A1.12,1.12,0,0,1,340.36,42.13Zm13.94,3.11a1.12,1.12,0,0,1,.51.95,1.16,1.16,0,0,1-.17.56A3.6,3.6,0,0,1,353.3,48a4.52,4.52,0,0,1-2,.37,4.37,4.37,0,0,1-2.67-.64,2.46,2.46,0,0,1-.83-2.06V39.3a.13.13,0,0,0-.14-.14H347a.18.18,0,0,0-.17.14A11.68,11.68,0,0,1,345,44.64a10,10,0,0,1-4.05,3.54.86.86,0,0,1-.41.1,1.09,1.09,0,0,1-.72-.29,1,1,0,0,1-.33-.76,1.17,1.17,0,0,1,.68-1.07,7.92,7.92,0,0,0,3.08-2.76,9.51,9.51,0,0,0,1.5-4.1c0-.09,0-.14-.13-.14h-.85a1.62,1.62,0,0,1-1.6-1.61v-4.4a1.59,1.59,0,0,1,1.6-1.58h3.63a.28.28,0,0,0,.17-.07,9.21,9.21,0,0,0,1.26-1.75,10.47,10.47,0,0,0,.9-2,.94.94,0,0,1,1-.73l.14,0,.15,0a1.07,1.07,0,0,1,.8,1.05.76.76,0,0,1,0,.15,1,1,0,0,1,0,.14,11.25,11.25,0,0,1-.59,1.52,15.35,15.35,0,0,1-.84,1.5c0,.05,0,.09,0,.12a.14.14,0,0,0,.11.05h1a1.54,1.54,0,0,1,1.13.46,1.5,1.5,0,0,1,.48,1.12v4.4a1.64,1.64,0,0,1-1.61,1.61H350c-.1,0-.15.05-.15.14v6.28c0,.32.1.54.31.63a3.42,3.42,0,0,0,1.27.15,1.66,1.66,0,0,0,.84-.16,2,2,0,0,0,.6-.64.92.92,0,0,1,.85-.49A1,1,0,0,1,354.3,45.24Zm-9.76-14.43c-.16-.43-.34-.84-.52-1.21a8.08,8.08,0,0,0-.6-1,1,1,0,0,1-.17-.56.84.84,0,0,1,.54-.86,1.29,1.29,0,0,1,.51-.09,1.14,1.14,0,0,1,1.09.65c.2.38.39.78.59,1.21s.35.83.48,1.2a.24.24,0,0,1,.05.16v.16a1.11,1.11,0,0,1-.27.72.88.88,0,0,1-.73.33,1.07,1.07,0,0,1-1-.69Zm6.35,2.92a.13.13,0,0,0-.14-.14h-6.33c-.1,0-.15,0-.15.14V37c0,.1.05.14.15.14h6.33a.12.12,0,0,0,.14-.14Z"/><path d="M368.48,46.14h8.88a1,1,0,0,1,.74.32,1.09,1.09,0,0,1,0,1.5,1,1,0,0,1-.74.32h-8.88c-3,0-5.25-.86-6.79-2.58-.05-.08-.11-.08-.19,0a12,12,0,0,1-1.28,1.41,13.89,13.89,0,0,1-1.35,1.15.9.9,0,0,1-1.36-.39,1.11,1.11,0,0,1-.12-.49,1.15,1.15,0,0,1,.48-1,17.39,17.39,0,0,0,1.34-1.29,8.73,8.73,0,0,0,1.19-1.58.45.45,0,0,0,.05-.17V38.26c0-.1-.05-.15-.14-.15h-1.68a1,1,0,0,1-.75-.31,1.06,1.06,0,0,1-.3-.73,1,1,0,0,1,1.05-1H361a1.6,1.6,0,0,1,1.6,1.6v5.65a.25.25,0,0,0,.05.17,5.58,5.58,0,0,0,2.3,2.06A8.49,8.49,0,0,0,368.48,46.14ZM358.43,30.4a1,1,0,0,1-.6-.38,1.12,1.12,0,0,1-.23-.69.93.93,0,0,1,.32-.72,1.08,1.08,0,0,1,.71-.28h.12a.21.21,0,0,1,.12,0c.55.11,1.15.27,1.81.47s1.3.43,1.91.67a1.13,1.13,0,0,1,.56.47,1.39,1.39,0,0,1,.19.72.9.9,0,0,1-.27.68.91.91,0,0,1-.65.27,1,1,0,0,1-.36-.07q-.78-.34-1.74-.66A17.74,17.74,0,0,0,358.43,30.4Zm19.63,11.48a1.3,1.3,0,0,1,.66,1.15,1,1,0,0,1-.3.76.93.93,0,0,1-.67.31.91.91,0,0,1-.44-.13,11.11,11.11,0,0,1-2.54-2,17.06,17.06,0,0,1-2.19-2.85,21.05,21.05,0,0,1-1.67-3.32c0-.06,0-.1-.08-.1s-.08,0-.11.13a15.53,15.53,0,0,1-1.79,3.5,16.28,16.28,0,0,1-2.2,2.56,14.5,14.5,0,0,1-2.17,1.69,1,1,0,0,1-.53.18,1,1,0,0,1-.9-.54,1.06,1.06,0,0,1-.15-.51,1.09,1.09,0,0,1,.51-.92,13,13,0,0,0,4.39-4.74,16,16,0,0,0,1.86-6.7.12.12,0,0,0-.14-.14h-3.09a1,1,0,0,1-.73-.31,1.05,1.05,0,0,1,.73-1.79h3.91a1.41,1.41,0,0,1,1.06.44,1.43,1.43,0,0,1,.43,1.05v.53a12.74,12.74,0,0,0,.52,3.63,16.26,16.26,0,0,0,1.41,3.35,14.85,14.85,0,0,0,2,2.81A10.7,10.7,0,0,0,378.06,41.88Z"/><path d="M381.49,49.4a.46.46,0,0,1-.29.1.61.61,0,0,1-.39-.16.48.48,0,0,1-.17-.33.41.41,0,0,1,.15-.29,14.06,14.06,0,0,0,3.6-5,15.17,15.17,0,0,0,1.19-5.87,15.34,15.34,0,0,0-1.19-5.89,13.82,13.82,0,0,0-3.6-5,.41.41,0,0,1-.15-.29.44.44,0,0,1,.16-.34.54.54,0,0,1,.38-.15.5.5,0,0,1,.31.1,12.76,12.76,0,0,1,3.5,3.14,13.59,13.59,0,0,1,2.09,4,14.53,14.53,0,0,1,0,8.85,13.52,13.52,0,0,1-2.09,4A12.76,12.76,0,0,1,381.49,49.4Z"/><path d="M10.75,40.71a11.66,11.66,0,0,0-.88-1.49c-.33-.47-.69-.93-1.06-1.38-.05-.07-.1-.09-.16-.07s-.09.08-.09.18v9.69a1.51,1.51,0,0,1-.44,1.06A1.44,1.44,0,0,1,7,49.16,1.41,1.41,0,0,1,6,48.7a1.47,1.47,0,0,1-.44-1.06v-9.9q0-.15-.09-.18c-.06,0-.11,0-.16.07-.5.54-1,1-1.45,1.49s-.94.87-1.41,1.27a1.36,1.36,0,0,1-.92.32,1.44,1.44,0,0,1-.71-.2A1.23,1.23,0,0,1,.25,40,1.54,1.54,0,0,1,0,39.08a1.89,1.89,0,0,1,.2-.8,1.63,1.63,0,0,1,.54-.65,24.2,24.2,0,0,0,4.78-5A28.73,28.73,0,0,0,9,26.1c.09-.16.05-.25-.14-.25H1.7a1.45,1.45,0,0,1-1.06-.44,1.41,1.41,0,0,1-.46-1.08,1.39,1.39,0,0,1,.44-1,1.47,1.47,0,0,1,1.08-.44H5.31c.14,0,.21-.07.21-.22V19.88A1.45,1.45,0,0,1,6,18.82,1.41,1.41,0,0,1,7,18.36a1.47,1.47,0,0,1,1.06.44,1.41,1.41,0,0,1,.46,1.08v2.75c0,.15.07.22.21.22h2.05a1.63,1.63,0,0,1,1.2.49,1.6,1.6,0,0,1,.5,1.17,1.83,1.83,0,0,1-.07.46,34.75,34.75,0,0,1-1.72,4.42,35.37,35.37,0,0,1-2.1,3.82.3.3,0,0,0,0,.32l.35.28a2.42,2.42,0,0,1,.32.32.23.23,0,0,0,.32,0,18.06,18.06,0,0,0,1.13-1.62,1.55,1.55,0,0,1,1.41-.85,1.27,1.27,0,0,1,1,.39,1.24,1.24,0,0,1,.38.88,1.12,1.12,0,0,1-.11.5,9.49,9.49,0,0,1-.85,1.53,13.35,13.35,0,0,1-1,1.3.19.19,0,0,0,0,.28c.3.4.6.82.9,1.27s.57.92.83,1.42a1.56,1.56,0,0,1-.6,2.05,1.28,1.28,0,0,1-.71.21A1.31,1.31,0,0,1,10.75,40.71Zm3.61-20.06h13A2.27,2.27,0,0,1,29.6,23c0,1-.06,2.24-.1,3.61s-.11,2.78-.16,4.26-.12,2.92-.18,4.33S29,37.9,29,39.08s-.16,2.13-.23,2.87a9.29,9.29,0,0,1-1,3.64,5.31,5.31,0,0,1-2,2,7.71,7.71,0,0,1-2.67.88,18.84,18.84,0,0,1-3,.18,1.45,1.45,0,0,1-1-.48A1.46,1.46,0,0,1,19,46.1a1.61,1.61,0,0,1,1.11-.44,12.55,12.55,0,0,0,3.22-.27A2.56,2.56,0,0,0,25,44.19a7.21,7.21,0,0,0,.72-2.6c.12-.82.22-2,.3-3.38s.16-3,.23-4.7.14-3.41.2-5.09.1-3.2.12-4.55a.19.19,0,0,0-.21-.21H21.57a.19.19,0,0,0-.21.21c0,2.17-.15,4.41-.37,6.71a39.4,39.4,0,0,1-1.26,6.79A24.41,24.41,0,0,1,17,43.64a19.16,19.16,0,0,1-4.72,5.2,1.07,1.07,0,0,1-.41.21,1.39,1.39,0,0,1-.44.07,1.43,1.43,0,0,1-1.24-.67,1.64,1.64,0,0,1-.25-.88,1.53,1.53,0,0,1,.64-1.31,16.83,16.83,0,0,0,4-4.6,21.55,21.55,0,0,0,2.3-5.53A36.85,36.85,0,0,0,18,30.06c.19-2.07.3-4.14.32-6.19a.19.19,0,0,0-.21-.21H14.36a1.49,1.49,0,0,1-1.06-.44,1.39,1.39,0,0,1-.46-1,1.51,1.51,0,0,1,.44-1.07A1.47,1.47,0,0,1,14.36,20.65Z"/><path d="M44,19.21H58.07a2.34,2.34,0,0,1,2.34,2.33V45.16A3.47,3.47,0,0,1,59,48.33a7.92,7.92,0,0,1-4.56.72,1.45,1.45,0,0,1-1-.51A1.6,1.6,0,0,1,53,47.46a1.49,1.49,0,0,1,1.59-1.52c.33,0,.62,0,.87,0h.65q.91,0,1.08-.18a1,1,0,0,0,.16-.64V38.94a.19.19,0,0,0-.21-.21H44.21a.26.26,0,0,0-.25.17,39.33,39.33,0,0,1-1.15,4.85A30.9,30.9,0,0,1,41,48.28a1.72,1.72,0,0,1-1.6,1,1.46,1.46,0,0,1-1.07-.41,1.3,1.3,0,0,1-.41-1,1.59,1.59,0,0,1,.14-.68A27.34,27.34,0,0,0,40.39,41a42.44,42.44,0,0,0,1-6.13c.16-2,.25-3.89.25-5.66V21.54a2.27,2.27,0,0,1,.67-1.65A2.22,2.22,0,0,1,44,19.21Zm.46,16.26c0,.14,0,.22.18.22H57.12a.19.19,0,0,0,.21-.22V30.7a.19.19,0,0,0-.21-.21H44.92c-.15,0-.22.07-.22.21,0,.8-.06,1.6-.1,2.39S44.49,34.67,44.42,35.47Zm12.7-8a.19.19,0,0,0,.21-.22V22.46a.19.19,0,0,0-.21-.21H44.92c-.15,0-.22.07-.22.21v4.77a.2.2,0,0,0,.22.22Z"/></g></g></svg>