<svg xmlns="http://www.w3.org/2000/svg" viewBox="0 0 358.18 60.08"><g id="レイヤー_2" data-name="レイヤー 2"><g id="レイヤー_1-2" data-name="レイヤー 1"><path d="M85.77,50a3,3,0,0,1-2.25-.78,2.76,2.76,0,0,1-1-2.16,2.81,2.81,0,0,1,1-2.18,2.74,2.74,0,0,1,2.25-.75c.69.08,1.43.16,2.21.23s1.55.12,2.29.16a.52.52,0,0,0,.59-.59V36.14a.52.52,0,0,0-.59-.58H71.94a2.72,2.72,0,0,1-2.68-1.83,4.15,4.15,0,0,1-.19-1.31,3.32,3.32,0,0,1,.58-2l19-27.86A4.06,4.06,0,0,1,95.1,2a4.17,4.17,0,0,1,1.23,2.93V29.68a.52.52,0,0,0,.59.59h6.53a2.63,2.63,0,0,1,1.89.75,2.48,2.48,0,0,1,.78,1.86,2.68,2.68,0,0,1-2.67,2.68H96.92a.52.52,0,0,0-.59.58V44a.52.52,0,0,0,.59.59c.74,0,1.5-.1,2.29-.16s1.52-.15,2.21-.23a2.74,2.74,0,0,1,2.25.75,2.85,2.85,0,0,1,1,2.18,2.79,2.79,0,0,1-1,2.16,3,3,0,0,1-2.25.78c-1.34-.13-2.67-.24-4-.33s-2.58-.13-3.85-.13-2.53,0-3.81.13S87.16,49.91,85.77,50Zm5.09-39.86a.54.54,0,0,0-.23-.52c-.16-.09-.32,0-.49.26L76.76,29.55a1.61,1.61,0,0,0-.13.33c0,.26.18.39.53.39H90.27a.52.52,0,0,0,.59-.59Z"/><path d="M110.56,59.89a1.79,1.79,0,0,1-.79.19,1.36,1.36,0,0,1-1.07-.48,1.68,1.68,0,0,1-.43-1.15,1.41,1.41,0,0,1,.72-1.24,14.36,14.36,0,0,0,3.56-3.32,5.58,5.58,0,0,0,1.27-3,1.5,1.5,0,0,0-1.5-1.63,4.24,4.24,0,0,1-2.9-1.64,4.62,4.62,0,0,1-1-2.8,5.06,5.06,0,0,1,1.17-3.23,3.93,3.93,0,0,1,3.4-1.4,4.31,4.31,0,0,1,3.75,2.15,9.42,9.42,0,0,1,1.4,5.22,14.28,14.28,0,0,1-7.63,12.33Z"/><path d="M140,30.66a17.17,17.17,0,0,1-8.18-1.89,14,14,0,0,1-5.58-5.25,14.69,14.69,0,0,1-2-7.73,15.72,15.72,0,0,1,2.08-8.16,14.62,14.62,0,0,1,5.81-5.51,17.81,17.81,0,0,1,8.55-2,20.4,20.4,0,0,1,6.49,1.08A15.07,15.07,0,0,1,153,4.83a18,18,0,0,1,4.17,6.85,31.43,31.43,0,0,1,1.57,10.7A42.23,42.23,0,0,1,156.52,37a20.25,20.25,0,0,1-6.5,9.36,16.31,16.31,0,0,1-10.24,3.26,16.89,16.89,0,0,1-7.21-1.4,11.45,11.45,0,0,1-4.5-3.52,7.13,7.13,0,0,1-1.53-4.15,4.54,4.54,0,0,1,1.27-3.36,4.11,4.11,0,0,1,3-1.27,3.62,3.62,0,0,1,2.9,1.27,4.22,4.22,0,0,1,1.08,2.78,3.49,3.49,0,0,1-.52,2c-.22.35-.22.63,0,.85.95,1,2.76,1.5,5.41,1.5a10.92,10.92,0,0,0,7.08-2.51,16.7,16.7,0,0,0,4.89-6.95,28.68,28.68,0,0,0,1.93-10.17c0-.22-.09-.33-.26-.33s-.63.22-1,.65a14.75,14.75,0,0,1-4.14,3.43,18.64,18.64,0,0,1-4.51,1.79A16,16,0,0,1,140,30.66Zm1.05-25.18a12.09,12.09,0,0,0-8.22,2.71,9,9,0,0,0-3.13,7.14,12.36,12.36,0,0,0,1,5.45,7.37,7.37,0,0,0,2.67,3.1A9.28,9.28,0,0,0,137,25.21a15.63,15.63,0,0,0,3.65.17,12,12,0,0,0,5.68-1.83,13.17,13.17,0,0,0,4.2-4.17,9.88,9.88,0,0,0,1.6-5.35,2,2,0,0,0-.13-.85,11.71,11.71,0,0,0-4.08-5.84A11.56,11.56,0,0,0,141.09,5.48Z"/><path d="M195.1,22.57c-.21.09-.32.2-.32.33s.13.26.39.39a13.82,13.82,0,0,1,6.2,4.7,11.79,11.79,0,0,1,2.28,7.11,12.72,12.72,0,0,1-2.41,7.63,15.87,15.87,0,0,1-6.66,5.19,26.93,26.93,0,0,1-19.67,0,15.75,15.75,0,0,1-6.68-5.19,12.66,12.66,0,0,1-2.42-7.63A11.81,11.81,0,0,1,168,28.22a15,15,0,0,1,5.94-4.93c.48-.22.5-.46.07-.72a11.34,11.34,0,0,1-4-4.07,10.69,10.69,0,0,1-1.5-5.45,11.55,11.55,0,0,1,2-6.79,13.79,13.79,0,0,1,5.74-4.6A20.36,20.36,0,0,1,184.73,0a20.12,20.12,0,0,1,8.42,1.66,14,14,0,0,1,5.74,4.6A11.44,11.44,0,0,1,201,13.05a10.18,10.18,0,0,1-1.57,5.41A11.75,11.75,0,0,1,195.1,22.57ZM184.73,44.69q6,0,9.56-2.61a8.23,8.23,0,0,0,3.55-7,7.43,7.43,0,0,0-1.69-4.83A11.41,11.41,0,0,0,191.52,27a17.66,17.66,0,0,0-6.79-1.21A16.81,16.81,0,0,0,178.08,27a12.56,12.56,0,0,0-4.77,3.36,7.12,7.12,0,0,0-1.76,4.7A8.27,8.27,0,0,0,175,42.18Q178.48,44.69,184.73,44.69ZM174.29,13.11a6.54,6.54,0,0,0,2.91,5.52,12.46,12.46,0,0,0,7.53,2.12,13.34,13.34,0,0,0,5.29-1A9.56,9.56,0,0,0,193.77,17a6,6,0,0,0,1.4-3.85,6.85,6.85,0,0,0-2.9-5.67,12.08,12.08,0,0,0-7.54-2.22,12.58,12.58,0,0,0-5.25,1.08,9.86,9.86,0,0,0-3.78,2.83A6.21,6.21,0,0,0,174.29,13.11Z"/><path d="M229.55.07A17.7,17.7,0,0,1,239.83,3a18.79,18.79,0,0,1,6.58,8.38,33.29,33.29,0,0,1,2.32,13.08A36.32,36.32,0,0,1,246.45,38a18.87,18.87,0,0,1-6.56,8.68,19.32,19.32,0,0,1-20.68,0A18.61,18.61,0,0,1,212.69,38a36.75,36.75,0,0,1-2.26-13.57,33.47,33.47,0,0,1,2.32-13.08A18.74,18.74,0,0,1,219.34,3,17.56,17.56,0,0,1,229.55.07Zm0,44.16a11,11,0,0,0,7.08-2.38A15,15,0,0,0,241.2,35a30.87,30.87,0,0,0,1.59-10.43,28.14,28.14,0,0,0-1.63-10.08,14.71,14.71,0,0,0-4.6-6.59,11.66,11.66,0,0,0-14,0,14.79,14.79,0,0,0-4.6,6.59,28.37,28.37,0,0,0-1.63,10.08q0,9.06,3.52,14.35A11,11,0,0,0,229.55,44.23Z"/><path d="M262.2,19.56h22.28a2.23,2.23,0,0,1,1.66.69,2.31,2.31,0,0,1,.67,1.64V45.16q0,4.06-5.69,3.89A1.58,1.58,0,0,1,280,48.5a1.74,1.74,0,0,1-.48-1.25,1.43,1.43,0,0,1,.48-1.08,1.34,1.34,0,0,1,1.11-.37,10.72,10.72,0,0,0,2.16-.09.54.54,0,0,0,.46-.55V36.07a.19.19,0,0,0-.21-.21h-20.3c-.15,0-.22.07-.22.21V47.64a1.56,1.56,0,0,1-2.65,1.11,1.45,1.45,0,0,1-.46-1.11V21.89a2.32,2.32,0,0,1,2.34-2.33Zm9.58,3.29a.19.19,0,0,0-.21-.22h-8.38a.2.2,0,0,0-.22.22v9.69c0,.14.07.21.22.21h8.38a.19.19,0,0,0,.21-.21Zm3.29-.22a.19.19,0,0,0-.21.22v9.69a.19.19,0,0,0,.21.21h8.42a.19.19,0,0,0,.21-.21V22.85a.19.19,0,0,0-.21-.22Z"/><path d="M300.58,49.3a12.42,12.42,0,0,1-3.49-3.14,13.07,13.07,0,0,1-2.09-4,14.34,14.34,0,0,1,0-8.85,13.14,13.14,0,0,1,2.09-4,12.57,12.57,0,0,1,3.49-3.14.48.48,0,0,1,.29-.09.55.55,0,0,1,.39.14.45.45,0,0,1,.17.34.4.4,0,0,1-.15.29,13.88,13.88,0,0,0-3.58,5,14.92,14.92,0,0,0,0,11.77,14.09,14.09,0,0,0,3.58,5,.39.39,0,0,1,0,.62.49.49,0,0,1-.38.16A.45.45,0,0,1,300.58,49.3Z"/><path d="M310.77,42.13a1,1,0,0,1-.34.07.87.87,0,0,1-.53-.18.84.84,0,0,1-.32-.5c0-.1,0-.2-.07-.31s-.07-.2-.1-.3-.05-.09-.1-.07-.07,0-.07.12v6.52a1,1,0,0,1-.31.72,1,1,0,0,1-1.78-.72v-6c0-.08,0-.12-.06-.13s-.08,0-.11.09c-.3.47-.61.92-.94,1.37A10.76,10.76,0,0,1,305,44a.66.66,0,0,1-.29.21,1.07,1.07,0,0,1-.35.06.91.91,0,0,1-.77-.39,1.25,1.25,0,0,1-.22-.7,1.35,1.35,0,0,1,.34-.9,15.56,15.56,0,0,0,2.21-3.22,10.66,10.66,0,0,0,1.17-3.43c0-.09,0-.14-.15-.14h-2.21a1.06,1.06,0,0,1-1.05-1,1,1,0,0,1,.31-.73,1,1,0,0,1,.74-.31H307a.13.13,0,0,0,.15-.15V30.89q0-.2-.15-.15c-.32.07-.65.11-1,.15L305,31a1,1,0,0,1-.77-.28,1,1,0,0,1-.32-.74,1,1,0,0,1,.26-.7,1,1,0,0,1,.66-.32,25.88,25.88,0,0,0,3.17-.52,24.13,24.13,0,0,0,2.57-.74,1.29,1.29,0,0,1,.41-.08,1,1,0,0,1,.54.16.85.85,0,0,1,.34.45,1.26,1.26,0,0,1,.07.41,1.09,1.09,0,0,1-.17.6.9.9,0,0,1-.46.4c-.29.12-.6.22-.92.33s-.68.21-1.05.3c-.08,0-.12.08-.12.15v2.87c0,.1.05.15.14.15h1.78a1,1,0,0,1,.74.31,1,1,0,0,1,.31.73,1.06,1.06,0,0,1-1,1h-1.78a.13.13,0,0,0-.14.14v.64a.23.23,0,0,0,.07.17,10.43,10.43,0,0,1,1.28,2,14,14,0,0,1,.91,2.27,1,1,0,0,1,0,.27A1.12,1.12,0,0,1,310.77,42.13Zm13.94,3.11a1.12,1.12,0,0,1,.51.95,1.16,1.16,0,0,1-.17.56A3.53,3.53,0,0,1,323.71,48a4.47,4.47,0,0,1-2,.37,4.4,4.4,0,0,1-2.68-.64,2.46,2.46,0,0,1-.83-2.06V39.3a.12.12,0,0,0-.14-.14h-.63a.18.18,0,0,0-.17.14,11.68,11.68,0,0,1-1.86,5.34,10,10,0,0,1-4.06,3.54.83.83,0,0,1-.41.1,1.09,1.09,0,0,1-.72-.29,1,1,0,0,1-.32-.76,1.15,1.15,0,0,1,.68-1.07,7.9,7.9,0,0,0,3.07-2.76,9.26,9.26,0,0,0,1.5-4.1c0-.09,0-.14-.12-.14h-.85a1.64,1.64,0,0,1-1.61-1.61v-4.4A1.58,1.58,0,0,1,313,32a1.56,1.56,0,0,1,1.15-.47h3.62a.26.26,0,0,0,.17-.07,9.71,9.71,0,0,0,1.27-1.75,11.11,11.11,0,0,0,.9-2,.93.93,0,0,1,1-.73l.15,0,.14,0a1.07,1.07,0,0,1,.81,1.05.77.77,0,0,1,0,.15l0,.14a11.37,11.37,0,0,1-.6,1.52,12.08,12.08,0,0,1-.84,1.5c0,.05,0,.09,0,.12a.13.13,0,0,0,.11.05h1A1.57,1.57,0,0,1,323,32a1.53,1.53,0,0,1,.47,1.12v4.4a1.62,1.62,0,0,1-1.6,1.61h-1.37a.13.13,0,0,0-.14.14v6.28a.62.62,0,0,0,.3.63,3.45,3.45,0,0,0,1.28.15,1.71,1.71,0,0,0,.84-.16,2.08,2.08,0,0,0,.59-.64.94.94,0,0,1,.86-.49A.93.93,0,0,1,324.71,45.24ZM315,30.81c-.17-.43-.34-.84-.53-1.21a7,7,0,0,0-.59-1,.93.93,0,0,1-.17-.56.83.83,0,0,1,.53-.86,1.36,1.36,0,0,1,.51-.09,1.17,1.17,0,0,1,1.1.65c.19.38.39.78.58,1.21s.36.83.49,1.2a.3.3,0,0,1,.05.16v.16a1.11,1.11,0,0,1-.27.72.89.89,0,0,1-.73.33,1,1,0,0,1-1-.69Zm6.34,2.92a.12.12,0,0,0-.14-.14h-6.33a.13.13,0,0,0-.14.14V37a.12.12,0,0,0,.14.14h6.33c.1,0,.14,0,.14-.14Z"/><path d="M338.89,46.14h8.88a1,1,0,0,1,.74.32,1.06,1.06,0,0,1,0,1.5,1,1,0,0,1-.74.32h-8.88q-4.47,0-6.78-2.58c-.05-.08-.12-.08-.2,0a11.18,11.18,0,0,1-1.28,1.41,11.86,11.86,0,0,1-1.35,1.15.9.9,0,0,1-1.36-.39,1.11,1.11,0,0,1-.12-.49,1.13,1.13,0,0,1,.49-1,17.38,17.38,0,0,0,1.33-1.29,9.28,9.28,0,0,0,1.2-1.58.45.45,0,0,0,.05-.17V38.26a.13.13,0,0,0-.15-.15H329a1,1,0,0,1-.74-.31,1.06,1.06,0,0,1-.3-.73,1,1,0,0,1,.3-.75A1,1,0,0,1,329,36h2.36a1.62,1.62,0,0,1,1.61,1.6v5.65a.25.25,0,0,0,0,.17,5.64,5.64,0,0,0,2.3,2.06A8.55,8.55,0,0,0,338.89,46.14Zm-10-15.74a.93.93,0,0,1-.6-.38,1.12,1.12,0,0,1-.23-.69.92.92,0,0,1,.31-.72,1.1,1.1,0,0,1,.71-.28h.12a.21.21,0,0,1,.12,0c.55.11,1.16.27,1.82.47s1.29.43,1.91.67a1.13,1.13,0,0,1,.56.47,1.39,1.39,0,0,1,.19.72.87.87,0,0,1-.28.68.9.9,0,0,1-.64.27,1,1,0,0,1-.37-.07q-.78-.34-1.74-.66A18.24,18.24,0,0,0,328.85,30.4Zm19.63,11.48a1.29,1.29,0,0,1,.65,1.15,1,1,0,0,1-.3.76.9.9,0,0,1-.67.31.94.94,0,0,1-.44-.13,11.11,11.11,0,0,1-2.54-2A17.61,17.61,0,0,1,343,39.12a21,21,0,0,1-1.66-3.32c0-.06-.05-.1-.09-.1s-.08,0-.11.13a15.13,15.13,0,0,1-1.79,3.5,15.77,15.77,0,0,1-2.2,2.56A14,14,0,0,1,335,43.58a1.08,1.08,0,0,1-.54.18,1,1,0,0,1-.9-.54,1,1,0,0,1-.14-.51,1.09,1.09,0,0,1,.51-.92,13.22,13.22,0,0,0,4.39-4.74,16.15,16.15,0,0,0,1.86-6.7c0-.1-.05-.14-.15-.14h-3.09a1,1,0,0,1-.73-.31,1,1,0,0,1,0-1.48,1,1,0,0,1,.73-.31h3.92a1.44,1.44,0,0,1,1.06.44,1.46,1.46,0,0,1,.42,1.05v.53a12.75,12.75,0,0,0,.53,3.63,16.26,16.26,0,0,0,1.41,3.35,15.28,15.28,0,0,0,2,2.81A10.74,10.74,0,0,0,348.48,41.88Z"/><path d="M351.91,49.4a.48.48,0,0,1-.29.1.57.57,0,0,1-.39-.16.45.45,0,0,1-.17-.33.44.44,0,0,1,.14-.29,13.82,13.82,0,0,0,3.6-5,15,15,0,0,0,1.2-5.87,15.17,15.17,0,0,0-1.2-5.89,13.59,13.59,0,0,0-3.6-5,.44.44,0,0,1-.14-.29.46.46,0,0,1,.15-.34.55.55,0,0,1,.38-.15.53.53,0,0,1,.32.1,12.71,12.71,0,0,1,3.49,3.14,13.36,13.36,0,0,1,2.09,4,14.53,14.53,0,0,1,0,8.85,13.29,13.29,0,0,1-2.09,4A12.71,12.71,0,0,1,351.91,49.4Z"/><path d="M6,19.21H20.12a2.34,2.34,0,0,1,2.34,2.33V45.16A3.45,3.45,0,0,1,21,48.33a7.92,7.92,0,0,1-4.56.72,1.41,1.41,0,0,1-1-.51A1.56,1.56,0,0,1,15,47.46a1.49,1.49,0,0,1,1.59-1.52c.33,0,.62,0,.87,0h.65q.93,0,1.08-.18a1,1,0,0,0,.16-.64V38.94a.19.19,0,0,0-.21-.21H6.26A.26.26,0,0,0,6,38.9a37.6,37.6,0,0,1-1.15,4.85,30.9,30.9,0,0,1-1.78,4.53,1.72,1.72,0,0,1-1.59,1,1.46,1.46,0,0,1-1.08-.41,1.34,1.34,0,0,1-.41-1,1.59,1.59,0,0,1,.14-.68A26.87,26.87,0,0,0,2.44,41a39.85,39.85,0,0,0,1-6.13c.16-2,.25-3.89.25-5.66V21.54a2.27,2.27,0,0,1,.67-1.65A2.22,2.22,0,0,1,6,19.21Zm.46,16.26c0,.14,0,.22.18.22H19.17a.19.19,0,0,0,.21-.22V30.7a.19.19,0,0,0-.21-.21H7a.19.19,0,0,0-.22.21c0,.8,0,1.6-.1,2.39S6.54,34.67,6.47,35.47Zm12.7-8a.19.19,0,0,0,.21-.22V22.46a.19.19,0,0,0-.21-.21H7a.19.19,0,0,0-.22.21v4.77a.2.2,0,0,0,.22.22Z"/><path d="M57.12,30.24a20.68,20.68,0,0,1-2.46,5.3A21.17,21.17,0,0,1,51,39.86a.29.29,0,0,0,0,.46,21.12,21.12,0,0,1,2.44,3.36,1.76,1.76,0,0,1,.21.78,1.48,1.48,0,0,1-.51,1.13,1.68,1.68,0,0,1-1.12.46,1.38,1.38,0,0,1-1.2-.75,20.74,20.74,0,0,0-3.24-4.22,13.62,13.62,0,0,0-3.66-2.6,1.46,1.46,0,0,1-.67-.57,1.41,1.41,0,0,1-.21-.74A1.68,1.68,0,0,1,43.5,36a1.45,1.45,0,0,1,1.13-.53,1.81,1.81,0,0,1,.67.18,17.72,17.72,0,0,1,3.08,2.05.38.38,0,0,0,.43,0,16.53,16.53,0,0,0,4.77-6.55s0,0,0-.05a.08.08,0,0,0,0-.05c0-.17-.1-.25-.29-.25H45.94a.51.51,0,0,0-.39.21,28.26,28.26,0,0,1-3.45,4.33A24.51,24.51,0,0,1,37.67,39a1.39,1.39,0,0,1-.78.25,1.34,1.34,0,0,1-1-.52,1.68,1.68,0,0,1-.44-1.11,1.51,1.51,0,0,1,.78-1.27,19.78,19.78,0,0,0,4.63-3.84,23.77,23.77,0,0,0,3.2-4.6,31.13,31.13,0,0,0,2.07-4.75,1.47,1.47,0,0,1,.59-.84,1.53,1.53,0,0,1,.83-.26,1.64,1.64,0,0,1,1.08.41,1.36,1.36,0,0,1,.47,1.07v.23a.54.54,0,0,1-.07.27c-.21.57-.43,1.14-.67,1.73s-.49,1.17-.78,1.74a.4.4,0,0,0,0,.17c0,.14.09.21.28.21h7.5a1.88,1.88,0,0,1,1.36.55,1.8,1.8,0,0,1,.55,1.29,2,2,0,0,1,0,.23C57.16,30.06,57.14,30.14,57.12,30.24Z"/></g></g></svg>